<svg fill="none" height="102" viewBox="0 0 300 102" width="300" xmlns="http://www.w3.org/2000/svg"><g fill="#fff"><path d="m21.6 72.4992c7.4 0 13.1-5.6 13.1-13.6 0-8.1-5.7-13.6-13.1-13.6s-13.1 5.8-13.1 13.6 5.7 13.6 13.1 13.6zm13-34.2h8.2v40.9c0 13.6-8.2 21.9998-21.1 21.9998-9.7 0-17.3-5.5998-20.3-13.9998l7.7-3.2c1.7 5.3 6.1 9.1 12.4 9.1 8.5 0 13.1-5.3 13.1-14.8v-3.5c-3.2 3.8-7.3 6-13.2 6-12 0-21.4-9.6-21.4-21.7 0-12.4 9.3-21.9 21.4-21.9 5.5 0 10 2.4 13.2 6zm21.4-5.8c-3 0-5.4-2.4-5.4-5.4s2.4-5.4 5.4-5.4 5.4 2.4 5.4 5.4-2.4 5.4-5.4 5.4zm-4.1 5.8h8.2v41.2h-8.2zm25.5 4.6c3.3-3.5 7.7-5.9 13.6-5.9 11 0 18.6 8.4 18.6 21.5v20.9h-8.2v-20c0-8.9-4.1-14.4-11.9-14.4-6.8 0-12 5-12 13.7v20.7h-8.2v-41.2h8.2v4.7zm47.3 12.3h25c-1.2-6.1-6.6-10-12.5-10s-11.3 4.3-12.5 10zm33.9 3.7c0 1.3-.1 2.3-.1 2.9h-34c.9 6.2 6.4 10.9 12.7 10.9 5.6 0 9.6-2.4 11.9-5.9l7.5 3.8c-3.8 6.3-10.9 10.2-19.4 10.2-12.3 0-21.4-9.7-21.4-21.8s9.2-21.8 21.4-21.8 21.4 9.6 21.4 21.7zm51.4-9.1h-12.4v12c0 6.7 4 10.7 9.6 10.7h.3v8.2h-.5c-9.6 0-17.6-7.1-17.6-18.6v-12.3h-16.5v12c0 6.7 4 10.7 9.6 10.7h.3v8.2h-.5c-9.6 0-17.6-7.1-17.6-18.6v-29.5l8.2-3v12.8h16.6v-9.8l8.2-3v12.8h12.4v7.4zm25.6-4.5c-7.4 0-13.2 5.8-13.2 13.6s5.8 13.6 13.2 13.6 13.2-5.6 13.2-13.6c0-8.1-5.8-13.6-13.2-13.6zm13.2 29.4c-3.3 3.8-7.4 6-13.3 6-12.1 0-21.5-9.6-21.5-21.7 0-12.4 9.3-21.9 21.5-21.9 5.6 0 10.1 2.4 13.3 6v-4.7h8.2v41.2h-8.2z"/><path d="m284.5 30.6992c-8.3 0-15-6.7-15-15 0-8.29998 6.7-14.999981 15-14.999981s15 6.700001 15 14.999981c0 8.3-6.7 15-15 15zm0 22.6c-8.3 0-15-6.7-15-15h30c0 8.3-6.7 15-15 15z"/></g></svg>