<?xml version="1.0" encoding="utf-8"?>
<!-- Generator: Adobe Illustrator 27.9.0, SVG Export Plug-In . SVG Version: 6.00 Build 0)  -->
<svg version="1.1" id="Lager_1" xmlns="http://www.w3.org/2000/svg" xmlns:xlink="http://www.w3.org/1999/xlink" x="0px" y="0px"
	 viewBox="0 0 793.7 126.11" style="enable-background:new 0 0 793.7 126.11;" xml:space="preserve">
<style type="text/css">
	.st0{fill:#FFFFFF;}
</style>
<g>
	<path class="st0" d="M385.71,44.28V34.22H366.8V15.3h-10.06v18.92h-18.91v10.06h18.91v18.91h10.06V44.28H385.71L385.71,44.28z
		 M340.21,52.47c-4.65-2.66-9.59-3.02-14.83-3.02h-15.2v49.21h14.83c5.53,0,11.22-0.88,15.94-3.91
		c6.86-4.43,10.18-12.84,10.18-20.73C351.13,65.83,347.51,56.75,340.21,52.47L340.21,52.47z M340.28,74.17
		c0,9-5.46,15.57-14.76,15.57h-4.65V58.45h4.79C334.9,58.45,340.28,65.39,340.28,74.17L340.28,74.17z M290.79,98.79l10.69-0.26
		l-1.21-49.2l-10.69,0.26L290.79,98.79L290.79,98.79z M275.65,98.66h10.77L269.3,49.45h-10.92l-17.19,49.21h10.85l3.39-10.7h16.97
		L275.65,98.66L275.65,98.66z M269.45,79.7h-11.07c1.99-6.34,4.43-12.61,5.46-19.26c0.37,2.36,0.96,4.72,1.7,7.01L269.45,79.7
		L269.45,79.7z M227.69,98.66h10.4V49.45h-10.62V76.6c0,2.21,0.15,4.35,0.22,6.57c-0.81-1.48-1.92-2.8-2.88-4.13l-21.47-29.59
		h-10.48v49.21h10.7V73.35c0-2.58-0.15-5.16-0.3-7.75c0.89,1.48,1.84,2.88,2.88,4.28L227.69,98.66L227.69,98.66z M189.46,73.94
		c0-15.13-11.51-25.68-26.41-25.68c-14.76,0-26.27,10.77-26.27,25.68c0,15.05,11.66,25.97,26.56,25.97
		C178.1,99.91,189.46,88.78,189.46,73.94L189.46,73.94z M178.62,73.87c0,8.63-6.64,16.68-15.57,16.68
		c-8.93,0-15.42-7.82-15.42-16.45c0-8.78,6.57-16.53,15.64-16.53C172.13,57.56,178.62,65.31,178.62,73.87L178.62,73.87z
		 M125.42,98.66h10.33l-6.71-49.21h-10.99L110,74.24c-0.74,2.36-1.48,4.72-2.06,7.16c-0.52-2.51-1.11-4.95-1.84-7.38l-7.67-24.57
		H87.42l-7.08,49.21h10.33c1.4-11.14,2.95-22.21,3.91-33.42c0.44,2.66,1.18,5.24,1.99,7.82l8.41,25.6h5.83l8.56-25.01
		c0.96-2.73,1.62-5.61,2.44-8.41c0.07,2.07,0.22,4.13,0.44,6.2L125.42,98.66L125.42,98.66z M47.13,98.66h27.74v-8.93H57.83V77.93
		h17.04v-9H57.83V58.45h17.04v-9H47.13V98.66L47.13,98.66z M17.25,98.66h24.72v-8.93H27.95V49.45h-10.7V98.66L17.25,98.66z"/>
	<path class="st0" d="M777.67,48.49l-0.01-13.79h-13.78l0.03,0.04c-7.45,0.08-13.48,6.16-13.48,13.65c0,3.76,1.47,7.11,3.94,9.59
		c2.46,2.46,5.88,3.97,9.63,3.97c7.5,0,13.57-6.02,13.65-13.5L777.67,48.49L777.67,48.49z M751.72,95.52
		c-1.01,0-1.83-0.47-2.46-1.42c-0.62-0.91-0.94-2.35-0.94-4.29v-22c0-2.99-1.26-5.52-3.78-7.61c-2.53-2.06-6.18-3.09-10.97-3.09
		c-5.19,0-9.37,1.17-12.57,3.52c-3.19,2.35-4.79,4.94-4.79,7.77c0,1.53,0.47,2.78,1.44,3.74c0.95,0.98,2.15,1.47,3.58,1.47
		c1.35,0,2.44-0.41,3.28-1.24c0.82-0.81,1.25-1.86,1.25-3.15c0-0.88-0.42-1.89-1.25-3.05c-0.69-0.93-1.02-1.58-1.02-2.03
		c0-0.74,0.63-1.49,1.92-2.28c1.8-1.02,3.95-1.54,6.44-1.54c2.69,0,4.93,0.77,6.66,2.33c1.75,1.55,2.63,3.41,2.63,5.58v6.11
		c-8.16,0.91-14.7,2.76-19.62,5.52c-4.91,2.75-7.38,6.23-7.38,10.41c0,2.78,1.09,5.06,3.23,6.84c2.16,1.78,5.29,2.67,9.42,2.67
		c2.9,0,5.38-0.5,7.44-1.44c2.05-0.96,4.45-2.88,7.18-5.74c0.99,2.67,2.16,4.53,3.5,5.58c1.32,1.06,2.97,1.6,4.91,1.6
		c2.56,0,4.88-1.07,6.96-3.23l-1.55-2.41C754.01,95.06,752.84,95.52,751.72,95.52L751.72,95.52z M741.15,82.93
		c0,3.86-1.24,7.08-3.71,9.64c-2.49,2.57-5.4,3.85-8.79,3.85c-1.89,0-3.43-0.62-4.6-1.87c-1.17-1.26-1.76-2.98-1.76-5.19
		c0-3.15,1.14-5.58,3.39-7.3c3.05-2.26,8.2-3.9,15.48-4.9V82.93L741.15,82.93z M686.78,91.69c-2.15-2.52-3.3-6.83-3.44-12.97h28.83
		c-0.05-4.01-0.59-7.32-1.6-9.97c-1.43-3.75-3.56-6.63-6.4-8.65c-2.83-1.99-6.2-3-10.1-3c-5.29,0-9.75,2.01-13.37,6.04
		c-3.63,4.01-5.44,9.3-5.44,15.82c0,6.08,1.85,11.06,5.53,14.95c3.67,3.91,8.21,5.86,13.6,5.86c7.9,0,13.96-4.08,18.13-12.21
		l-2.79-1.19c-3.41,6.38-7.91,9.57-13.54,9.57C692.39,95.94,689.25,94.52,686.78,91.69L686.78,91.69z M683.35,75.67
		c0.07-5.34,1.16-9.32,3.24-11.99c2.07-2.67,4.6-4.01,7.59-4.01c2.66,0,4.98,1.1,6.94,3.32c1.96,2.21,2.94,4.88,2.94,8.03
		c0,1.69-0.27,2.89-0.86,3.59c-0.56,0.7-1.36,1.05-2.4,1.05H683.35L683.35,75.67z M681,55.61h2.96l-1.24-20.59h-49.27l-1.37,20.59
		h3.14c1-6.97,2.64-8.63,4.94-11.88c2.78-3.92,5.06-5.88,9.23-5.88c1.46,0,2.51,0.27,3.17,0.83c0.66,0.56,0.99,1.39,0.99,2.47v51.53
		c0,0.8-0.26,1.44-0.78,1.94c-0.51,0.48-1.25,0.71-2.24,0.71h-7.3v3.23h29.53v-3.23h-6.4c-1.39,0-2.38-0.23-2.98-0.71
		c-0.6-0.5-0.9-1.26-0.9-2.29V41.55c0-1.33,0.31-2.27,0.93-2.85c0.63-0.57,1.76-0.85,3.42-0.85C675.1,37.85,679.03,41.48,681,55.61
		L681,55.61z M633.64,95.34h-4.56c-1,0-1.84-0.28-2.49-0.85c-0.46-0.4-0.7-1.06-0.7-2.03V57.84l-15.5,0.46v3.23h2.79
		c1.8,0,3.16,0.4,4.09,1.23c0.91,0.81,1.36,2.03,1.36,3.63v25.35c0,1.18-0.29,2.08-0.87,2.69c-0.59,0.62-1.51,0.91-2.78,0.91h-4.25
		v3.23h22.92V95.34L633.64,95.34z M623.82,48.76c0.95-0.94,1.41-2.06,1.41-3.35c0-1.31-0.49-2.46-1.45-3.44
		c-0.99-0.97-2.12-1.46-3.4-1.46c-1.26,0-2.37,0.49-3.36,1.46c-0.96,0.98-1.45,2.11-1.45,3.39c0,1.29,0.48,2.42,1.44,3.38
		c0.96,0.96,2.1,1.44,3.41,1.44C621.75,50.17,622.87,49.7,623.82,48.76L623.82,48.76z M607.87,69.14c0.87-1.01,1.31-2.41,1.31-4.22
		c0-2.23-0.65-4.02-1.95-5.35c-1.31-1.32-3.05-1.99-5.22-1.99c-3.21,0-5.9,1.39-8.08,4.13c-2.18,2.75-4.04,6.81-5.59,12.16V57.57
		l-14.48,0.73v3.06h3.52c1.55,0,2.74,0.45,3.57,1.34c0.83,0.91,1.25,2.34,1.25,4.28v25.66c0,0.74-0.34,1.39-1.03,1.91
		c-0.5,0.38-1.17,0.62-2.02,0.72c-1.7,0.12-4.46,0.19-5.81-0.45c-1.33-0.64-1.87-1.28-2.5-2.22c-0.64-0.92-0.94-2.35-0.94-4.3v-20.5
		c0-2.99-1.26-5.52-3.79-7.61c-2.52-2.06-6.18-3.09-10.95-3.09c-5.19,0-9.38,1.17-12.57,3.52c-3.2,2.35-4.8,4.94-4.8,7.77
		c0,1.53,0.48,2.78,1.44,3.74c0.96,0.98,2.16,1.47,3.59,1.47c1.35,0,2.44-0.41,3.27-1.24c0.83-0.81,1.24-1.86,1.24-3.15
		c0-0.88-0.42-1.89-1.24-3.05c-0.69-0.93-1.03-1.58-1.03-2.03c0-0.74,0.65-1.49,1.93-2.28c1.81-1.02,3.95-1.54,6.45-1.54
		c2.69,0,4.91,0.77,6.65,2.33c1.75,1.55,2.62,3.41,2.62,5.58v6.11c-8.17,0.91-14.7,2.76-19.62,5.52c-4.91,2.75-7.37,6.23-7.37,10.41
		c0,2.78,1.08,5.06,3.22,6.84c2.15,1.78,5.29,2.67,9.41,2.67c2.9,0,5.38-0.5,7.45-1.44c2.05-0.96,4.45-2.88,7.17-5.74
		c1,2.67,1.26,3.33,2.14,4.21c1.54,1.51,3.26,1.76,4.86,1.76h29.16v-3.23h-5.12c-1.65,0-2.84-0.25-3.52-0.77
		c-0.69-0.51-1.02-1.25-1.02-2.23V83.7c0-3.13,0.85-7.29,2.58-12.5c1.11-3.36,2.7-6,4.76-7.91c1.49-1.38,2.82-2.06,4-2.06
		c0.54,0,0.82,0.21,0.82,0.63c0,0.15-0.21,0.59-0.65,1.34c-0.46,0.84-0.69,1.72-0.69,2.68c0,1.44,0.4,2.59,1.18,3.46
		c0.79,0.87,1.83,1.29,3.11,1.29C605.9,70.64,607,70.13,607.87,69.14L607.87,69.14z M562.71,82.93c0,3.86-1.24,7.08-3.73,9.64
		c-2.47,2.57-5.4,3.85-8.78,3.85c-1.9,0-3.43-0.62-4.6-1.87c-1.18-1.26-1.76-2.98-1.76-5.19c0-3.15,1.14-5.58,3.4-7.3
		c3.04-2.26,8.19-3.9,15.47-4.9V82.93L562.71,82.93z M513.63,98.57h21.74v-3.23h-3.44c-1.35,0-2.34-0.28-2.97-0.83
		c-0.63-0.56-0.94-1.46-0.94-2.69V72.7c0-3.31-0.57-6.2-1.71-8.64c-1.13-2.43-2.49-4.14-4.1-5.1c-2.06-1.24-4.38-1.86-6.96-1.86
		c-2.72,0-5.3,0.67-7.73,2.04c-2.44,1.36-4.72,3.41-6.83,6.17V34.28l-15.26,0.73v3.23h2.92c1.71,0,3.02,0.42,3.93,1.26
		c0.9,0.84,1.36,2.13,1.36,3.84v48.04c0,1.34-0.34,2.34-1.03,2.98c-0.69,0.64-1.85,0.96-3.48,0.96h-2.41v3.23H508v-3.23h-3.44
		c-1.38,0-2.37-0.29-2.97-0.89c-0.6-0.59-0.89-1.61-0.89-3.05V75.32c0-2.39,0.59-4.68,1.75-6.85c1.18-2.16,2.62-3.77,4.31-4.83
		c1.68-1.08,3.53-1.58,5.5-1.58c2.52,0,4.59,0.92,6.21,2.81c1.62,1.87,2.42,4.48,2.42,7.84v19.11c0,1.18-0.35,2.06-1.05,2.65
		c-0.71,0.58-1.97,0.87-3.81,0.87h-2.4V98.57L513.63,98.57z M448,90.19c-3.83-5.02-5.75-12.3-5.75-21.83
		c0-11.35,1.67-19.39,5.02-24.15c3.35-4.75,7.69-7.13,13.03-7.13c4.92,0,9.16,2.13,12.71,6.4c2.86,3.41,5.24,8.72,7.13,15.9h2.88
		l-1.12-25.57h-2.71l-2.97,6.15c-3.03-2.29-5.84-3.91-8.42-4.86c-2.58-0.94-5.24-1.41-7.99-1.41c-4.93,0-9.53,1.4-13.79,4.18
		c-4.27,2.79-7.78,6.98-10.52,12.53c-2.73,5.57-4.1,11.51-4.1,17.84c0,5.95,1.32,11.44,3.97,16.43c2.65,4.99,6.19,8.84,10.62,11.5
		c4.42,2.67,9.29,4,14.59,4c6.54,0,11.95-2.03,16.25-6.11c4.3-4.07,6.9-9.87,7.78-17.45h-3.05c-1.06,6.68-3.34,11.67-6.83,14.97
		c-3.49,3.32-7.82,4.97-12.98,4.97C455.85,96.55,451.26,94.43,448,90.19L448,90.19z"/>
</g>
</svg>
