<svg enable-background="new 0 0 793.7 126.11" viewBox="0 0 793.7 126.11" xmlns="http://www.w3.org/2000/svg"><g fill="#fff"><path d="m385.71 44.28v-10.06h-18.91v-18.92h-10.06v18.92h-18.91v10.06h18.91v18.91h10.06v-18.91zm-45.5 8.19c-4.65-2.66-9.59-3.02-14.83-3.02h-15.2v49.21h14.83c5.53 0 11.22-.88 15.94-3.91 6.86-4.43 10.18-12.84 10.18-20.73 0-8.19-3.62-17.27-10.92-21.55zm.07 21.7c0 9-5.46 15.57-14.76 15.57h-4.65v-31.29h4.79c9.24 0 14.62 6.94 14.62 15.72zm-49.49 24.62 10.69-.26-1.21-49.2-10.69.26zm-15.14-.13h10.77l-17.12-49.21h-10.92l-17.19 49.21h10.85l3.39-10.7h16.97zm-6.2-18.96h-11.07c1.99-6.34 4.43-12.61 5.46-19.26.37 2.36.96 4.72 1.7 7.01zm-41.76 18.96h10.4v-49.21h-10.62v27.15c0 2.21.15 4.35.22 6.57-.81-1.48-1.92-2.8-2.88-4.13l-21.47-29.59h-10.48v49.21h10.7v-25.31c0-2.58-.15-5.16-.3-7.75.89 1.48 1.84 2.88 2.88 4.28zm-38.23-24.72c0-15.13-11.51-25.68-26.41-25.68-14.76 0-26.27 10.77-26.27 25.68 0 15.05 11.66 25.97 26.56 25.97 14.76 0 26.12-11.13 26.12-25.97zm-10.84-.07c0 8.63-6.64 16.68-15.57 16.68s-15.42-7.82-15.42-16.45c0-8.78 6.57-16.53 15.64-16.53 8.86-.01 15.35 7.74 15.35 16.3zm-53.2 24.79h10.33l-6.71-49.21h-10.99l-8.05 24.79c-.74 2.36-1.48 4.72-2.06 7.16-.52-2.51-1.11-4.95-1.84-7.38l-7.67-24.57h-11.01l-7.08 49.21h10.33c1.4-11.14 2.95-22.21 3.91-33.42.44 2.66 1.18 5.24 1.99 7.82l8.41 25.6h5.83l8.56-25.01c.96-2.73 1.62-5.61 2.44-8.41.07 2.07.22 4.13.44 6.2zm-78.29 0h27.74v-8.93h-17.04v-11.8h17.04v-9h-17.04v-10.48h17.04v-9h-27.74zm-29.88 0h24.72v-8.93h-14.02v-40.28h-10.7z"/><path d="m777.67 48.49-.01-13.79h-13.78l.03.04c-7.45.08-13.48 6.16-13.48 13.65 0 3.76 1.47 7.11 3.94 9.59 2.46 2.46 5.88 3.97 9.63 3.97 7.5 0 13.57-6.02 13.65-13.5zm-25.95 47.03c-1.01 0-1.83-.47-2.46-1.42-.62-.91-.94-2.35-.94-4.29v-22c0-2.99-1.26-5.52-3.78-7.61-2.53-2.06-6.18-3.09-10.97-3.09-5.19 0-9.37 1.17-12.57 3.52-3.19 2.35-4.79 4.94-4.79 7.77 0 1.53.47 2.78 1.44 3.74.95.98 2.15 1.47 3.58 1.47 1.35 0 2.44-.41 3.28-1.24.82-.81 1.25-1.86 1.25-3.15 0-.88-.42-1.89-1.25-3.05-.69-.93-1.02-1.58-1.02-2.03 0-.74.63-1.49 1.92-2.28 1.8-1.02 3.95-1.54 6.44-1.54 2.69 0 4.93.77 6.66 2.33 1.75 1.55 2.63 3.41 2.63 5.58v6.11c-8.16.91-14.7 2.76-19.62 5.52-4.91 2.75-7.38 6.23-7.38 10.41 0 2.78 1.09 5.06 3.23 6.84 2.16 1.78 5.29 2.67 9.42 2.67 2.9 0 5.38-.5 7.44-1.44 2.05-.96 4.45-2.88 7.18-5.74.99 2.67 2.16 4.53 3.5 5.58 1.32 1.06 2.97 1.6 4.91 1.6 2.56 0 4.88-1.07 6.96-3.23l-1.55-2.41c-1.22.92-2.39 1.38-3.51 1.38zm-10.57-12.59c0 3.86-1.24 7.08-3.71 9.64-2.49 2.57-5.4 3.85-8.79 3.85-1.89 0-3.43-.62-4.6-1.87-1.17-1.26-1.76-2.98-1.76-5.19 0-3.15 1.14-5.58 3.39-7.3 3.05-2.26 8.2-3.9 15.48-4.9v5.77zm-54.37 8.76c-2.15-2.52-3.3-6.83-3.44-12.97h28.83c-.05-4.01-.59-7.32-1.6-9.97-1.43-3.75-3.56-6.63-6.4-8.65-2.83-1.99-6.2-3-10.1-3-5.29 0-9.75 2.01-13.37 6.04-3.63 4.01-5.44 9.3-5.44 15.82 0 6.08 1.85 11.06 5.53 14.95 3.67 3.91 8.21 5.86 13.6 5.86 7.9 0 13.96-4.08 18.13-12.21l-2.79-1.19c-3.41 6.38-7.91 9.57-13.54 9.57-3.8 0-6.94-1.42-9.41-4.25zm-3.43-16.02c.07-5.34 1.16-9.32 3.24-11.99 2.07-2.67 4.6-4.01 7.59-4.01 2.66 0 4.98 1.1 6.94 3.32 1.96 2.21 2.94 4.88 2.94 8.03 0 1.69-.27 2.89-.86 3.59-.56.7-1.36 1.05-2.4 1.05h-17.45zm-2.35-20.06h2.96l-1.24-20.59h-49.27l-1.37 20.59h3.14c1-6.97 2.64-8.63 4.94-11.88 2.78-3.92 5.06-5.88 9.23-5.88 1.46 0 2.51.27 3.17.83s.99 1.39.99 2.47v51.53c0 .8-.26 1.44-.78 1.94-.51.48-1.25.71-2.24.71h-7.3v3.23h29.53v-3.23h-6.4c-1.39 0-2.38-.23-2.98-.71-.6-.5-.9-1.26-.9-2.29v-50.78c0-1.33.31-2.27.93-2.85.63-.57 1.76-.85 3.42-.85 8.27 0 12.2 3.63 14.17 17.76zm-47.36 39.73h-4.56c-1 0-1.84-.28-2.49-.85-.46-.4-.7-1.06-.7-2.03v-34.62l-15.5.46v3.23h2.79c1.8 0 3.16.4 4.09 1.23.91.81 1.36 2.03 1.36 3.63v25.35c0 1.18-.29 2.08-.87 2.69-.59.62-1.51.91-2.78.91h-4.25v3.23h22.92v-3.23zm-9.82-46.58c.95-.94 1.41-2.06 1.41-3.35 0-1.31-.49-2.46-1.45-3.44-.99-.97-2.12-1.46-3.4-1.46-1.26 0-2.37.49-3.36 1.46-.96.98-1.45 2.11-1.45 3.39 0 1.29.48 2.42 1.44 3.38s2.1 1.44 3.41 1.44c1.33-.01 2.45-.48 3.4-1.42zm-15.95 20.38c.87-1.01 1.31-2.41 1.31-4.22 0-2.23-.65-4.02-1.95-5.35-1.31-1.32-3.05-1.99-5.22-1.99-3.21 0-5.9 1.39-8.08 4.13-2.18 2.75-4.04 6.81-5.59 12.16v-16.3l-14.48.73v3.06h3.52c1.55 0 2.74.45 3.57 1.34.83.91 1.25 2.34 1.25 4.28v25.66c0 .74-.34 1.39-1.03 1.91-.5.38-1.17.62-2.02.72-1.7.12-4.46.19-5.81-.45-1.33-.64-1.87-1.28-2.5-2.22-.64-.92-.94-2.35-.94-4.3v-20.5c0-2.99-1.26-5.52-3.79-7.61-2.52-2.06-6.18-3.09-10.95-3.09-5.19 0-9.38 1.17-12.57 3.52-3.2 2.35-4.8 4.94-4.8 7.77 0 1.53.48 2.78 1.44 3.74.96.98 2.16 1.47 3.59 1.47 1.35 0 2.44-.41 3.27-1.24.83-.81 1.24-1.86 1.24-3.15 0-.88-.42-1.89-1.24-3.05-.69-.93-1.03-1.58-1.03-2.03 0-.74.65-1.49 1.93-2.28 1.81-1.02 3.95-1.54 6.45-1.54 2.69 0 4.91.77 6.65 2.33 1.75 1.55 2.62 3.41 2.62 5.58v6.11c-8.17.91-14.7 2.76-19.62 5.52-4.91 2.75-7.37 6.23-7.37 10.41 0 2.78 1.08 5.06 3.22 6.84 2.15 1.78 5.29 2.67 9.41 2.67 2.9 0 5.38-.5 7.45-1.44 2.05-.96 4.45-2.88 7.17-5.74 1 2.67 1.26 3.33 2.14 4.21 1.54 1.51 3.26 1.76 4.86 1.76h29.16v-3.23h-5.12c-1.65 0-2.84-.25-3.52-.77-.69-.51-1.02-1.25-1.02-2.23v-8.63c0-3.13.85-7.29 2.58-12.5 1.11-3.36 2.7-6 4.76-7.91 1.49-1.38 2.82-2.06 4-2.06.54 0 .82.21.82.63 0 .15-.21.59-.65 1.34-.46.84-.69 1.72-.69 2.68 0 1.44.4 2.59 1.18 3.46.79.87 1.83 1.29 3.11 1.29 1.32.01 2.42-.5 3.29-1.49zm-45.16 13.79c0 3.86-1.24 7.08-3.73 9.64-2.47 2.57-5.4 3.85-8.78 3.85-1.9 0-3.43-.62-4.6-1.87-1.18-1.26-1.76-2.98-1.76-5.19 0-3.15 1.14-5.58 3.4-7.3 3.04-2.26 8.19-3.9 15.47-4.9zm-49.08 15.64h21.74v-3.23h-3.44c-1.35 0-2.34-.28-2.97-.83-.63-.56-.94-1.46-.94-2.69v-19.12c0-3.31-.57-6.2-1.71-8.64-1.13-2.43-2.49-4.14-4.1-5.1-2.06-1.24-4.38-1.86-6.96-1.86-2.72 0-5.3.67-7.73 2.04-2.44 1.36-4.72 3.41-6.83 6.17v-31.03l-15.26.73v3.23h2.92c1.71 0 3.02.42 3.93 1.26.9.84 1.36 2.13 1.36 3.84v48.04c0 1.34-.34 2.34-1.03 2.98s-1.85.96-3.48.96h-2.41v3.23h21.28v-3.23h-3.44c-1.38 0-2.37-.29-2.97-.89-.6-.59-.89-1.61-.89-3.05v-16.06c0-2.39.59-4.68 1.75-6.85 1.18-2.16 2.62-3.77 4.31-4.83 1.68-1.08 3.53-1.58 5.5-1.58 2.52 0 4.59.92 6.21 2.81 1.62 1.87 2.42 4.48 2.42 7.84v19.11c0 1.18-.35 2.06-1.05 2.65-.71.58-1.97.87-3.81.87h-2.4zm-65.63-8.38c-3.83-5.02-5.75-12.3-5.75-21.83 0-11.35 1.67-19.39 5.02-24.15 3.35-4.75 7.69-7.13 13.03-7.13 4.92 0 9.16 2.13 12.71 6.4 2.86 3.41 5.24 8.72 7.13 15.9h2.88l-1.12-25.57h-2.71l-2.97 6.15c-3.03-2.29-5.84-3.91-8.42-4.86-2.58-.94-5.24-1.41-7.99-1.41-4.93 0-9.53 1.4-13.79 4.18-4.27 2.79-7.78 6.98-10.52 12.53-2.73 5.57-4.1 11.51-4.1 17.84 0 5.95 1.32 11.44 3.97 16.43s6.19 8.84 10.62 11.5c4.42 2.67 9.29 4 14.59 4 6.54 0 11.95-2.03 16.25-6.11 4.3-4.07 6.9-9.87 7.78-17.45h-3.05c-1.06 6.68-3.34 11.67-6.83 14.97-3.49 3.32-7.82 4.97-12.98 4.97-5.9 0-10.49-2.12-13.75-6.36z"/></g></svg>