<svg fill="none" height="20" viewBox="0 0 20 20" width="20" xmlns="http://www.w3.org/2000/svg"><g stroke="#fffefe" stroke-linecap="round" stroke-linejoin="round"><path d="m18 3.625h-15.875v12.9886h15.875z"/><path d="m7.89702 13.7276c1.99262 0 3.60798-1.6153 3.60798-3.6079 0-1.99265-1.61536-3.60798-3.60798-3.60798s-3.60796 1.61533-3.60796 3.60798c0 1.9926 1.61534 3.6079 3.60796 3.6079z"/><path d="m14.3926 10.1211v3.6079"/><path d="m14.3926 6.51172v1.44318"/><path d="m12.9492 7.95312h2.8864"/></g><path d="m7.89737 10.8416c.39853 0 .72159-.323.72159-.7216 0-.3985-.32306-.72156-.72159-.72156-.39852 0-.72159.32306-.72159.72156 0 .3986.32307.7216.72159.7216z" fill="#fffefe"/></svg>