<svg width="20" height="20" viewBox="0 0 20 20" fill="none" xmlns="http://www.w3.org/2000/svg">
<path d="M18 3.625H2.125V16.6136H18V3.625Z" stroke="#FFFEFE" stroke-linecap="round" stroke-linejoin="round"/>
<path d="M7.89702 13.7276C9.88964 13.7276 11.505 12.1123 11.505 10.1197C11.505 8.12705 9.88964 6.51172 7.89702 6.51172C5.9044 6.51172 4.28906 8.12705 4.28906 10.1197C4.28906 12.1123 5.9044 13.7276 7.89702 13.7276Z" stroke="#FFFEFE" stroke-linecap="round" stroke-linejoin="round"/>
<path d="M14.3926 10.1211V13.729" stroke="#FFFEFE" stroke-linecap="round" stroke-linejoin="round"/>
<path d="M14.3926 6.51172V7.9549" stroke="#FFFEFE" stroke-linecap="round" stroke-linejoin="round"/>
<path d="M12.9492 7.95312H15.8356" stroke="#FFFEFE" stroke-linecap="round" stroke-linejoin="round"/>
<path d="M7.89737 10.8416C8.2959 10.8416 8.61896 10.5186 8.61896 10.12C8.61896 9.7215 8.2959 9.39844 7.89737 9.39844C7.49885 9.39844 7.17578 9.7215 7.17578 10.12C7.17578 10.5186 7.49885 10.8416 7.89737 10.8416Z" fill="#FFFEFE"/>
</svg>
