<svg enable-background="new 0 0 682.39 685.05" viewBox="0 0 682.39 685.05" xmlns="http://www.w3.org/2000/svg" xmlns:xlink="http://www.w3.org/1999/xlink"><clipPath id="a"><path d="m0 0h682.39v685.05h-682.39z"/></clipPath><clipPath id="b"><path d="m0 0h682.39v685.05h-682.39z"/></clipPath><path clip-path="url(#a)" d="m655.9 339.08c0 175.15-141.99 317.15-317.15 317.15s-317.15-141.99-317.15-317.15 141.99-317.14 317.15-317.14 317.15 141.99 317.15 317.14" fill="#fff"/><circle clip-path="url(#a)" cx="338.75" cy="339.08" fill="none" r="317.15" stroke="#000411" stroke-width="13.669"/><path clip-path="url(#a)" d="m635.15 338.05c0 164.34-133.07 297.56-297.22 297.56s-297.22-133.22-297.22-297.56 133.07-297.56 297.22-297.56 297.22 133.22 297.22 297.56"/><ellipse clip-path="url(#a)" cx="337.93" cy="338.05" fill="none" rx="297.22" ry="297.56" stroke="#000411" stroke-width="3.332"/><circle clip-path="url(#a)" cx="337.76" cy="338.62" fill="none" r="304.95" stroke="#000411" stroke-width="3.417"/><path clip-path="url(#a)" d="m147.12 209.93h387.48v127.43h-387.48z" fill="#fff"/><path clip-path="url(#a)" d="m250.74 110.72h20.48v5.48h-20.48z" fill="#fff"/><path clip-path="url(#a)" d="m413.9 110.81h20.38v5.38h-20.38z" fill="#fff"/><path clip-path="url(#a)" d="m122.09 203.6h437.83l-46-18.28.07-10.09 2.84-1.93-18.66-11.86h-21.7l-42.18-35.27-.01-6.69h-20.38v5.49h-142.56v-5.5h-20.22v6.67l-41.28 35.38h-21.79l-18.51 11.7 2.66 2.17v10.01z" fill="#fff"/><path clip-path="url(#a)" d="m318.35 217.84h11.31v35.01h-11.31z"/><path clip-path="url(#a)" d="m140.38 264.62h114.65" fill="none" stroke="#000" stroke-width="1.563"/><path clip-path="url(#a)" d="m423.51 264.62h112.82" fill="none" stroke="#000" stroke-width="1.563"/><path clip-path="url(#a)" d="m352.28 217.84h11.31v35.01h-11.31z"/><path clip-path="url(#a)" d="m331.54 277.42h18.81v35.26h-18.81z" fill="#fff"/><path clip-path="url(#a)" d="m331.54 277.42h18.81v35.26h-18.81z" fill="none" stroke="#000" stroke-width="2.042"/><path clip-path="url(#a)" d="m425.86 271.87h-171.54c-.16 0-.29-.13-.29-.29v-3.53c0-.16.13-.3.29-.3h171.53c.16 0 .3.13.3.3v3.53c-0 .15-.13.29-.29.29" fill="#888a8c"/><path clip-path="url(#a)" d="m425.86 271.87h-171.54c-.16 0-.29-.13-.29-.29v-3.53c0-.16.13-.3.29-.3h171.53c.16 0 .3.13.3.3v3.53c-0 .15-.13.29-.29.29z" fill="none" stroke="#000" stroke-miterlimit="10" stroke-width="1.021"/><path clip-path="url(#a)" d="m270.84 255.51c-.09.33.31 1.03-.35 1.04h-1.45v9.82c0 .71-.57 1.29-1.27 1.29h-11.19c-.7 0-1.28-.58-1.28-1.29v-9.82h-.98c-.66 0-.26-.7-.35-1.04-.17-.61-.13-.63-.83-.99v-1.38h8.99.58 8.99v1.38c-.74.36-.7.38-.86.99" fill="#888a8c"/><path d="m270.84 255.51c-.09.33.31 1.03-.35 1.04h-1.45v9.82c0 .71-.57 1.29-1.27 1.29h-11.19c-.7 0-1.28-.58-1.28-1.29v-9.82h-.98c-.66 0-.26-.7-.35-1.04-.17-.61-.13-.63-.83-.99v-1.38h8.99.58 8.99v1.38c-.74.36-.7.38-.86.99z" style="fill:none;stroke:#000;stroke-width:1.021;stroke-linecap:round;stroke-linejoin:round;stroke-miterlimit:10;clip-path:url(#a)"/><path clip-path="url(#a)" d="m255.29 256.55h13.74" fill="none" stroke="#000" stroke-width=".959"/><path clip-path="url(#a)" d="m322.14 255.51c-.09.33.31 1.03-.35 1.04h-1.45v9.82c0 .71-.57 1.29-1.27 1.29h-11.19c-.7 0-1.28-.58-1.28-1.29v-9.82h-.98c-.66 0-.26-.7-.35-1.04-.17-.61-.13-.63-.83-.99v-1.38h8.99.58 8.98v1.38c-.73.36-.69.38-.85.99" fill="#888a8c"/><path clip-path="url(#a)" d="m322.14 255.51c-.09.33.31 1.03-.35 1.04h-1.45v9.82c0 .71-.57 1.29-1.27 1.29h-11.19c-.7 0-1.28-.58-1.28-1.29v-9.82h-.98c-.66 0-.26-.7-.35-1.04-.17-.61-.13-.63-.83-.99v-1.38h8.99.58 8.98v1.38c-.73.36-.69.38-.85.99z" fill="none" stroke="#000" stroke-miterlimit="10" stroke-width="1.021"/><path clip-path="url(#a)" d="m306.59 256.55h13.74" fill="none" stroke="#000" stroke-width=".959"/><path clip-path="url(#a)" d="m373.92 255.51c-.09.33.31 1.03-.35 1.04h-1.45v9.82c0 .71-.57 1.29-1.27 1.29h-11.19c-.71 0-1.28-.58-1.28-1.29v-9.82h-.98c-.66 0-.26-.7-.35-1.04-.17-.61-.13-.63-.83-.99v-1.38h8.99.58 8.99v1.38c-.74.36-.7.38-.86.99" fill="#888a8c"/><path clip-path="url(#a)" d="m373.92 255.51c-.09.33.31 1.03-.35 1.04h-1.45v9.82c0 .71-.57 1.29-1.27 1.29h-11.19c-.71 0-1.28-.58-1.28-1.29v-9.82h-.98c-.66 0-.26-.7-.35-1.04-.17-.61-.13-.63-.83-.99v-1.38h8.99.58 8.99v1.38c-.74.36-.7.38-.86.99z" fill="none" stroke="#000" stroke-miterlimit="10" stroke-width="1.021"/><path clip-path="url(#a)" d="m358.37 256.55h13.74" fill="none" stroke="#000" stroke-width=".959"/><path clip-path="url(#a)" d="m424.81 255.51c-.09.33.31 1.03-.35 1.04h-1.45v9.82c0 .71-.57 1.29-1.27 1.29h-11.19c-.7 0-1.28-.58-1.28-1.29v-9.82h-.98c-.66 0-.26-.7-.35-1.04-.17-.61-.13-.63-.83-.99v-1.38h8.99.58 8.98v1.38c-.72.36-.68.38-.85.99" fill="#888a8c"/><path clip-path="url(#a)" d="m424.81 255.51c-.09.33.31 1.03-.35 1.04h-1.45v9.82c0 .71-.57 1.29-1.27 1.29h-11.19c-.7 0-1.28-.58-1.28-1.29v-9.82h-.98c-.66 0-.26-.7-.35-1.04-.17-.61-.13-.63-.83-.99v-1.38h8.99.58 8.98v1.38c-.72.36-.68.38-.85.99z" fill="none" stroke="#000" stroke-miterlimit="10" stroke-width="1.021"/><path clip-path="url(#a)" d="m409.27 256.55h13.74" fill="none" stroke="#000" stroke-width=".959"/><path clip-path="url(#a)" d="m266.57 217.84h11.31v34.64h-11.31z"/><path clip-path="url(#a)" d="m268.19 220.21h8.34" fill="none" stroke="#fff" stroke-width="1.021"/><path clip-path="url(#a)" d="m268.12 226.45h8.34" fill="none" stroke="#fff" stroke-width="1.021"/><path clip-path="url(#a)" d="m268.19 223.25h8.34" fill="none" stroke="#fff" stroke-width="1.021"/><path clip-path="url(#a)" d="m268.16 229.86h8.34" fill="none" stroke="#fff" stroke-width="1.021"/><path clip-path="url(#a)" d="m268.19 236.17h8.34" fill="none" stroke="#fff" stroke-width="1.021"/><path clip-path="url(#a)" d="m268.16 242.51h8.34" fill="none" stroke="#fff" stroke-width="1.021"/><path clip-path="url(#a)" d="m268.09 233h8.41" fill="none" stroke="#fff" stroke-width="1.021"/><path clip-path="url(#a)" d="m268.13 239.31h8.39" fill="none" stroke="#fff" stroke-width="1.021"/><path clip-path="url(#a)" d="m268.17 245.74h8.49" fill="none" stroke="#fff" stroke-width="1.021"/><path clip-path="url(#a)" d="m268.2 248.92h8.34" fill="none" stroke="#fff" stroke-width="1.021"/><path clip-path="url(#a)" d="m300.13 217.84h11.31v35.01h-11.31z"/><path clip-path="url(#a)" d="m279.76 277.42h18.81v35.26h-18.81z" fill="#fff"/><path clip-path="url(#a)" d="m279.76 277.42h18.81v35.26h-18.81z" fill="none" stroke="#000" stroke-width="2.042"/><path clip-path="url(#a)" d="m368.94 217.99h11.31v35.01h-11.31z"/><path clip-path="url(#a)" d="m403.25 217.99h11.31v35.38h-11.31z"/><path clip-path="url(#a)" d="m382.36 277.42h18.81v35.26h-18.81z" fill="#fff"/><path clip-path="url(#a)" d="m382.36 277.42h18.81v35.26h-18.81z" fill="none" stroke="#000" stroke-width="2.042"/><path clip-path="url(#a)" d="m331.54 218.92h18.81v35.26h-18.81z" fill="#fff"/><path clip-path="url(#a)" d="m331.54 218.92h18.81v35.26h-18.81z" fill="none" stroke="#000" stroke-width="2.042"/><path clip-path="url(#a)" d="m279.76 218.92h18.81v35.26h-18.81z" fill="#fff"/><path clip-path="url(#a)" d="m279.76 218.92h18.81v35.26h-18.81z" fill="none" stroke="#000" stroke-width="2.042"/><path clip-path="url(#a)" d="m382.36 218.92h18.81v35.26h-18.81z" fill="#fff"/><path clip-path="url(#a)" d="m382.36 218.92h18.81v35.26h-18.81z" fill="none" stroke="#000" stroke-width="2.042"/><path clip-path="url(#a)" d="m420.47 217.84h11.31v30.11h-11.31z"/><path clip-path="url(#a)" d="m433.72 219.46h18.43v26.88h-18.43z" fill="#fff"/><path clip-path="url(#a)" d="m433.72 219.46h18.43v26.88h-18.43z" fill="none" stroke="#000" stroke-width="2.042"/><path clip-path="url(#a)" d="m422.09 220.17h8.34" fill="none" stroke="#fff" stroke-width="1.021"/><path clip-path="url(#a)" d="m422.02 226.42h8.34" fill="none" stroke="#fff" stroke-width="1.021"/><path clip-path="url(#a)" d="m422.09 223.22h8.34" fill="none" stroke="#fff" stroke-width="1.021"/><path clip-path="url(#a)" d="m422.05 229.83h8.35" fill="none" stroke="#fff" stroke-width="1.021"/><path clip-path="url(#a)" d="m422.09 236.13h8.34" fill="none" stroke="#fff" stroke-width="1.021"/><path clip-path="url(#a)" d="m422.05 242.47h8.35" fill="none" stroke="#fff" stroke-width="1.021"/><path clip-path="url(#a)" d="m421.99 232.96h8.41" fill="none" stroke="#fff" stroke-width="1.021"/><path clip-path="url(#a)" d="m422.03 239.27h8.39" fill="none" stroke="#fff" stroke-width="1.021"/><path clip-path="url(#a)" d="m422.07 245.7h8.49" fill="none" stroke="#fff" stroke-width="1.021"/><path clip-path="url(#a)" d="m454.03 217.84h11.31v30.11h-11.31z"/><path clip-path="url(#a)" d="m455.65 220.17h8.34" fill="none" stroke="#fff" stroke-width="1.021"/><path clip-path="url(#a)" d="m455.58 226.42h8.34" fill="none" stroke="#fff" stroke-width="1.021"/><path clip-path="url(#a)" d="m455.65 223.22h8.34" fill="none" stroke="#fff" stroke-width="1.021"/><path clip-path="url(#a)" d="m455.62 229.83h8.34" fill="none" stroke="#fff" stroke-width="1.021"/><path clip-path="url(#a)" d="m455.65 236.13h8.34" fill="none" stroke="#fff" stroke-width="1.021"/><path clip-path="url(#a)" d="m455.62 242.47h8.34" fill="none" stroke="#fff" stroke-width="1.021"/><path clip-path="url(#a)" d="m455.55 232.96h8.41" fill="none" stroke="#fff" stroke-width="1.021"/><path clip-path="url(#a)" d="m455.59 239.27h8.4" fill="none" stroke="#fff" stroke-width="1.021"/><path clip-path="url(#a)" d="m455.63 245.7h8.49" fill="none" stroke="#fff" stroke-width="1.021"/><path clip-path="url(#a)" d="m433.66 277.42h18.81v35.26h-18.81z" fill="#fff"/><path clip-path="url(#a)" d="m433.66 277.42h18.81v35.26h-18.81z" fill="none" stroke="#000" stroke-width="2.042"/><path clip-path="url(#a)" d="m471.76 217.84h11.31v30.11h-11.31z"/><path clip-path="url(#a)" d="m485.02 219.46h18.42v26.88h-18.42z" fill="#fff"/><path clip-path="url(#a)" d="m485.02 219.46h18.42v26.88h-18.42z" fill="none" stroke="#000" stroke-width="2.042"/><path clip-path="url(#a)" d="m473.39 220.17h8.34" fill="none" stroke="#fff" stroke-width="1.021"/><path clip-path="url(#a)" d="m473.32 226.42h8.34" fill="none" stroke="#fff" stroke-width="1.021"/><path clip-path="url(#a)" d="m473.39 223.22h8.34" fill="none" stroke="#fff" stroke-width="1.021"/><path clip-path="url(#a)" d="m473.35 229.83h8.35" fill="none" stroke="#fff" stroke-width="1.021"/><path clip-path="url(#a)" d="m473.39 236.13h8.34" fill="none" stroke="#fff" stroke-width="1.021"/><path clip-path="url(#a)" d="m473.35 242.47h8.35" fill="none" stroke="#fff" stroke-width="1.021"/><path clip-path="url(#a)" d="m473.29 232.96h8.41" fill="none" stroke="#fff" stroke-width="1.021"/><path clip-path="url(#a)" d="m473.33 239.27h8.39" fill="none" stroke="#fff" stroke-width="1.021"/><path clip-path="url(#a)" d="m473.37 245.7h8.49" fill="none" stroke="#fff" stroke-width="1.021"/><path clip-path="url(#a)" d="m505.33 217.84h11.31v30.11h-11.31z"/><path clip-path="url(#a)" d="m506.95 220.17h8.34" fill="none" stroke="#fff" stroke-width="1.021"/><path clip-path="url(#a)" d="m506.88 226.42h8.34" fill="none" stroke="#fff" stroke-width="1.021"/><path clip-path="url(#a)" d="m506.95 223.22h8.34" fill="none" stroke="#fff" stroke-width="1.021"/><path clip-path="url(#a)" d="m506.92 229.83h8.34" fill="none" stroke="#fff" stroke-width="1.021"/><path clip-path="url(#a)" d="m506.95 236.13h8.34" fill="none" stroke="#fff" stroke-width="1.021"/><path clip-path="url(#a)" d="m506.92 242.47h8.34" fill="none" stroke="#fff" stroke-width="1.021"/><path clip-path="url(#a)" d="m506.85 232.96h8.41" fill="none" stroke="#fff" stroke-width="1.021"/><path clip-path="url(#a)" d="m506.89 239.27h8.39" fill="none" stroke="#fff" stroke-width="1.021"/><path clip-path="url(#a)" d="m506.93 245.7h8.49" fill="none" stroke="#fff" stroke-width="1.021"/><path clip-path="url(#a)" d="m484.96 277.42h18.81v35.26h-18.81z" fill="#fff"/><path clip-path="url(#a)" d="m484.96 277.42h18.81v35.26h-18.81z" fill="none" stroke="#000" stroke-width="2.042"/><path clip-path="url(#a)" d="m453.28 248.93h-8.49-3.54-8.49c-.73 0-1.38.49-1.16.92.16.3.45.56.77.8.57.43.82.65 1.69.65h2.1 5.09.5 2.54.5 5.09 2.1c.87 0 1.12-.22 1.7-.65.32-.24.61-.49.77-.8.22-.43-.44-.92-1.17-.92"/><path clip-path="url(#a)" d="m504.58 248.93h-8.49-3.54-8.49c-.73 0-1.39.49-1.16.92.16.3.45.56.77.8.57.43.82.65 1.7.65h2.1 5.09.5 2.54.5 5.09 2.1c.87 0 1.12-.22 1.7-.65.32-.24.61-.49.77-.8.21-.43-.45-.92-1.18-.92"/><path clip-path="url(#a)" d="m163.52 217.84h11.31v30.11h-11.31z"/><path clip-path="url(#a)" d="m176.78 219.46h18.43v26.88h-18.43z" fill="#fff"/><path clip-path="url(#a)" d="m176.78 219.46h18.43v26.88h-18.43z" fill="none" stroke="#000" stroke-width="2.042"/><path clip-path="url(#a)" d="m165.15 220.18h8.34" fill="none" stroke="#fff" stroke-width="1.021"/><path clip-path="url(#a)" d="m165.08 226.42h8.34" fill="none" stroke="#fff" stroke-width="1.021"/><path clip-path="url(#a)" d="m165.15 223.22h8.34" fill="none" stroke="#fff" stroke-width="1.021"/><path clip-path="url(#a)" d="m165.11 229.83h8.34" fill="none" stroke="#fff" stroke-width="1.021"/><path clip-path="url(#a)" d="m165.15 236.13h8.34" fill="none" stroke="#fff" stroke-width="1.021"/><path clip-path="url(#a)" d="m165.11 242.48h8.34" fill="none" stroke="#fff" stroke-width="1.021"/><path clip-path="url(#a)" d="m165.04 232.97h8.41" fill="none" stroke="#fff" stroke-width="1.021"/><path clip-path="url(#a)" d="m165.08 239.28h8.4" fill="none" stroke="#fff" stroke-width="1.021"/><path clip-path="url(#a)" d="m165.12 245.71h8.5" fill="none" stroke="#fff" stroke-width="1.021"/><path clip-path="url(#a)" d="m197.08 217.84h11.31v30.11h-11.31z"/><path clip-path="url(#a)" d="m198.71 220.18h8.34" fill="none" stroke="#fff" stroke-width="1.021"/><path clip-path="url(#a)" d="m198.64 226.42h8.34" fill="none" stroke="#fff" stroke-width="1.021"/><path clip-path="url(#a)" d="m198.71 223.22h8.34" fill="none" stroke="#fff" stroke-width="1.021"/><path clip-path="url(#a)" d="m198.67 229.83h8.34" fill="none" stroke="#fff" stroke-width="1.021"/><path clip-path="url(#a)" d="m198.71 236.13h8.34" fill="none" stroke="#fff" stroke-width="1.021"/><path clip-path="url(#a)" d="m198.67 242.48h8.34" fill="none" stroke="#fff" stroke-width="1.021"/><path clip-path="url(#a)" d="m198.6 232.97h8.41" fill="none" stroke="#fff" stroke-width="1.021"/><path clip-path="url(#a)" d="m198.65 239.28h8.39" fill="none" stroke="#fff" stroke-width="1.021"/><path clip-path="url(#a)" d="m198.69 245.71h8.49" fill="none" stroke="#fff" stroke-width="1.021"/><path clip-path="url(#a)" d="m176.71 277.42h18.81v35.26h-18.81z" fill="#fff"/><path clip-path="url(#a)" d="m176.71 277.42h18.81v35.26h-18.81z" fill="none" stroke="#000" stroke-width="2.042"/><path clip-path="url(#a)" d="m214.82 217.84h11.31v30.11h-11.31z"/><path clip-path="url(#a)" d="m228.08 219.46h18.43v26.88h-18.43z" fill="#fff"/><path clip-path="url(#a)" d="m228.08 219.46h18.43v26.88h-18.43z" fill="none" stroke="#000" stroke-width="2.042"/><path clip-path="url(#a)" d="m216.45 220.18h8.34" fill="none" stroke="#fff" stroke-width=".959"/><path clip-path="url(#a)" d="m216.38 226.42h8.34" fill="none" stroke="#fff" stroke-width=".959"/><path clip-path="url(#a)" d="m216.45 223.22h8.34" fill="none" stroke="#fff" stroke-width=".959"/><path clip-path="url(#a)" d="m216.41 229.83h8.34" fill="none" stroke="#fff" stroke-width=".959"/><path clip-path="url(#a)" d="m216.45 236.13h8.34" fill="none" stroke="#fff" stroke-width=".959"/><path clip-path="url(#a)" d="m216.41 242.48h8.34" fill="none" stroke="#fff" stroke-width=".959"/><path clip-path="url(#a)" d="m216.34 232.97h8.41" fill="none" stroke="#fff" stroke-width=".959"/><path clip-path="url(#a)" d="m216.38 239.28h8.4" fill="none" stroke="#fff" stroke-width=".959"/><path clip-path="url(#a)" d="m216.42 245.71h8.5" fill="none" stroke="#fff" stroke-width=".959"/><path clip-path="url(#a)" d="m248.38 217.84h11.31v30.11h-11.31z"/><path clip-path="url(#a)" d="m250.01 220.18h8.34" fill="none" stroke="#fff" stroke-width=".959"/><path clip-path="url(#a)" d="m249.94 226.42h8.34" fill="none" stroke="#fff" stroke-width=".959"/><path clip-path="url(#a)" d="m250.01 223.22h8.34" fill="none" stroke="#fff" stroke-width=".959"/><path clip-path="url(#a)" d="m249.97 229.83h8.34" fill="none" stroke="#fff" stroke-width=".959"/><path clip-path="url(#a)" d="m250.01 236.13h8.34" fill="none" stroke="#fff" stroke-width=".959"/><path clip-path="url(#a)" d="m249.97 242.48h8.34" fill="none" stroke="#fff" stroke-width=".959"/><path clip-path="url(#a)" d="m249.9 232.97h8.41" fill="none" stroke="#fff" stroke-width=".959"/><path clip-path="url(#a)" d="m249.95 239.28h8.39" fill="none" stroke="#fff" stroke-width=".959"/><path clip-path="url(#a)" d="m249.99 245.71h8.49" fill="none" stroke="#fff" stroke-width=".959"/><path clip-path="url(#a)" d="m228.01 277.42h18.81v35.26h-18.81z" fill="#fff"/><path clip-path="url(#a)" d="m228.01 277.42h18.81v35.26h-18.81z" fill="none" stroke="#000" stroke-width="2.042"/><path clip-path="url(#a)" d="m196.34 248.93h-8.49-3.54-8.49c-.73 0-1.39.49-1.16.92.16.3.45.56.77.8.57.43.82.65 1.7.65h2.1 5.09.5 2.54.5 5.09 2.1c.87 0 1.12-.22 1.7-.65.32-.24.61-.49.77-.8.21-.42-.45-.91-1.18-.92"/><path clip-path="url(#a)" d="m196.34 216.91h-8.49-3.54-8.49c-.73 0-1.39-.49-1.16-.92.16-.3.45-.56.77-.8.57-.43.82-.65 1.7-.65h2.1 5.09.5 2.54.5 5.09 2.1c.87 0 1.12.22 1.7.65.32.24.61.49.77.8.21.42-.45.91-1.18.92"/><path clip-path="url(#a)" d="m247.44 216.91h-8.49-3.54-8.49c-.73 0-1.39-.49-1.16-.92.16-.3.45-.56.77-.8.57-.43.82-.65 1.7-.65h2.1 5.09.5 2.54.5 5.09 2.1c.87 0 1.12.22 1.7.65.32.24.61.49.77.8.21.42-.45.91-1.18.92"/><path clip-path="url(#a)" d="m299.18 216.69h-8.49-3.54-8.49c-.73 0-1.39-.49-1.16-.92.16-.3.45-.56.77-.8.57-.43.82-.65 1.7-.65h2.1 5.09.5 2.54.5 5.09 2.1c.87 0 1.12.22 1.7.65.32.24.61.49.77.8.21.43-.45.92-1.18.92"/><path clip-path="url(#a)" d="m351.35 216.69h-8.49-3.54-8.49c-.73 0-1.39-.49-1.16-.92.16-.3.45-.56.77-.8.57-.43.82-.65 1.7-.65h2.1 5.09.5 2.54.5 5.09 2.1c.87 0 1.12.22 1.7.65.32.24.61.49.77.8.2.43-.45.92-1.18.92"/><path clip-path="url(#a)" d="m401.91 216.69h-8.49-3.54-8.49c-.73 0-1.39-.49-1.16-.92.16-.3.45-.56.77-.8.57-.43.82-.65 1.7-.65h2.1 5.09.5 2.54.5 5.09 2.1c.87 0 1.12.22 1.7.65.32.24.61.49.77.8.21.43-.45.92-1.18.92"/><path clip-path="url(#a)" d="m452.9 216.8h-8.49-3.54-8.49c-.73 0-1.39-.49-1.16-.92.16-.3.45-.56.77-.8.57-.43.82-.65 1.7-.65h2.1 5.09.5 2.54.5 5.09 2.1c.87 0 1.12.22 1.7.65.32.24.61.49.77.8.21.43-.45.92-1.18.92"/><path clip-path="url(#a)" d="m504.33 216.95h-8.49-3.54-8.49c-.73 0-1.39-.49-1.16-.92.16-.3.45-.56.77-.8.57-.43.82-.65 1.7-.65h2.1 5.09.5 2.54.5 5.09 2.1c.87 0 1.12.22 1.7.65.32.24.61.49.77.8.21.43-.45.92-1.18.92"/><path clip-path="url(#a)" d="m267.02 160.46h11.31v30.11h-11.31z"/><path clip-path="url(#a)" d="m280.28 162.08h18.42v26.88h-18.42z" fill="#fff"/><path clip-path="url(#a)" d="m280.28 162.08h18.42v26.88h-18.42z" fill="none" stroke="#000" stroke-width="2.042"/><path clip-path="url(#a)" d="m282.88 164.95h5.8v6.07h-5.8z"/><path clip-path="url(#a)" d="m282.88 172.77h5.8v6.07h-5.8z"/><path clip-path="url(#a)" d="m282.95 180.33h5.8v6.07h-5.8z"/><path clip-path="url(#a)" d="m290.35 164.93h5.8v6.07h-5.8z"/><path clip-path="url(#a)" d="m290.35 172.76h5.8v6.07h-5.8z"/><path clip-path="url(#a)" d="m290.41 180.32h5.8v6.07h-5.8z"/><path clip-path="url(#a)" d="m487.53 222.56h5.74v6.01h-5.74z"/><path clip-path="url(#a)" d="m487.53 230.31h5.74v6.01h-5.74z"/><path clip-path="url(#a)" d="m487.59 237.79h5.74v6.01h-5.74z"/><path clip-path="url(#a)" d="m494.92 222.54h5.74v6.01h-5.74z"/><path clip-path="url(#a)" d="m494.92 230.29h5.74v6.01h-5.74z"/><path clip-path="url(#a)" d="m494.98 237.78h5.74v6.01h-5.74z"/><path clip-path="url(#a)" d="m436.25 222.35h5.74v6.01h-5.74z"/><path clip-path="url(#a)" d="m436.25 230.1h5.74v6.01h-5.74z"/><path clip-path="url(#a)" d="m436.32 237.58h5.74v6.01h-5.74z"/><path clip-path="url(#a)" d="m443.64 222.33h5.74v6.01h-5.74z"/><path clip-path="url(#a)" d="m443.64 230.08h5.74v6.01h-5.74z"/><path clip-path="url(#a)" d="m443.71 237.57h5.74v6.01h-5.74z"/><path clip-path="url(#a)" d="m179.24 222.27h5.8v6.07h-5.8z"/><path clip-path="url(#a)" d="m179.24 230.1h5.8v6.07h-5.8z"/><path clip-path="url(#a)" d="m179.31 237.66h5.8v6.07h-5.8z"/><path clip-path="url(#a)" d="m186.71 222.26h5.8v6.07h-5.8z"/><path clip-path="url(#a)" d="m186.71 230.09h5.8v6.07h-5.8z"/><path clip-path="url(#a)" d="m186.77 237.65h5.8v6.07h-5.8z"/><path clip-path="url(#a)" d="m230.79 222.27h5.8v6.07h-5.8z"/><path clip-path="url(#a)" d="m230.79 230.1h5.8v6.07h-5.8z"/><path clip-path="url(#a)" d="m230.85 237.66h5.8v6.07h-5.8z"/><path clip-path="url(#a)" d="m238.25 222.26h5.8v6.07h-5.8z"/><path clip-path="url(#a)" d="m238.25 230.09h5.8v6.07h-5.8z"/><path clip-path="url(#a)" d="m238.32 237.65h5.8v6.07h-5.8z"/><path clip-path="url(#a)" d="m282.47 222.27h5.8v6.07h-5.8z"/><path clip-path="url(#a)" d="m282.47 230.1h5.8v6.07h-5.8z"/><path clip-path="url(#a)" d="m282.53 237.66h5.8v6.07h-5.8z"/><path clip-path="url(#a)" d="m289.93 222.26h5.8v6.07h-5.8z"/><path clip-path="url(#a)" d="m289.93 230.09h5.8v6.07h-5.8z"/><path clip-path="url(#a)" d="m290 237.65h5.8v6.07h-5.8z"/><path clip-path="url(#a)" d="m282.58 245.27h5.74v6.01h-5.74z"/><path clip-path="url(#a)" d="m289.97 245.25h5.74v6.01h-5.74z"/><path clip-path="url(#a)" d="m179.51 280.62h5.74v6.01h-5.74z"/><path clip-path="url(#a)" d="m179.51 288.37h5.74v6.01h-5.74z"/><path clip-path="url(#a)" d="m179.57 295.86h5.74v6.01h-5.74z"/><path clip-path="url(#a)" d="m186.9 280.61h5.74v6.01h-5.74z"/><path clip-path="url(#a)" d="m186.9 288.36h5.74v6.01h-5.74z"/><path clip-path="url(#a)" d="m186.96 295.84h5.74v6.01h-5.74z"/><path clip-path="url(#a)" d="m179.62 303.39h5.68v5.95h-5.68z"/><path clip-path="url(#a)" d="m186.94 303.37h5.68v5.95h-5.68z"/><path clip-path="url(#a)" d="m230.84 280.9h5.68v5.95h-5.68z"/><path clip-path="url(#a)" d="m230.84 288.57h5.68v5.95h-5.68z"/><path clip-path="url(#a)" d="m230.9 295.98h5.68v5.95h-5.68z"/><path clip-path="url(#a)" d="m238.15 280.88h5.68v5.95h-5.68z"/><path clip-path="url(#a)" d="m238.15 288.55h5.68v5.95h-5.68z"/><path clip-path="url(#a)" d="m238.22 295.96h5.68v5.95h-5.68z"/><path clip-path="url(#a)" d="m230.95 303.43h5.63v5.89h-5.63z"/><path clip-path="url(#a)" d="m238.19 303.42h5.63v5.89h-5.63z"/><path clip-path="url(#a)" d="m282.7 280.8h5.68v5.95h-5.68z"/><path clip-path="url(#a)" d="m282.7 288.47h5.68v5.95h-5.68z"/><path clip-path="url(#a)" d="m282.77 295.88h5.68v5.95h-5.68z"/><path clip-path="url(#a)" d="m290.02 280.78h5.68v5.95h-5.68z"/><path clip-path="url(#a)" d="m290.02 288.46h5.68v5.95h-5.68z"/><path clip-path="url(#a)" d="m290.09 295.87h5.68v5.95h-5.68z"/><path clip-path="url(#a)" d="m282.82 303.34h5.63v5.89h-5.63z"/><path clip-path="url(#a)" d="m290.06 303.32h5.63v5.89h-5.63z"/><path clip-path="url(#a)" d="m334.45 280.78h5.68v5.95h-5.68z"/><path clip-path="url(#a)" d="m334.45 288.46h5.68v5.95h-5.68z"/><path clip-path="url(#a)" d="m334.51 295.87h5.68v5.95h-5.68z"/><path clip-path="url(#a)" d="m341.76 280.77h5.68v5.95h-5.68z"/><path clip-path="url(#a)" d="m341.76 288.44h5.68v5.95h-5.68z"/><path clip-path="url(#a)" d="m341.83 295.85h5.68v5.95h-5.68z"/><path clip-path="url(#a)" d="m334.56 303.32h5.63v5.89h-5.63z"/><path clip-path="url(#a)" d="m341.8 303.31h5.63v5.89h-5.63z"/><path clip-path="url(#a)" d="m385.2 280.78h5.68v5.95h-5.68z"/><path clip-path="url(#a)" d="m385.2 288.46h5.68v5.95h-5.68z"/><path clip-path="url(#a)" d="m385.27 295.87h5.68v5.95h-5.68z"/><path clip-path="url(#a)" d="m392.52 280.77h5.68v5.95h-5.68z"/><path clip-path="url(#a)" d="m392.52 288.44h5.68v5.95h-5.68z"/><path clip-path="url(#a)" d="m392.58 295.85h5.69v5.95h-5.69z"/><path clip-path="url(#a)" d="m385.31 303.32h5.63v5.89h-5.63z"/><path clip-path="url(#a)" d="m392.55 303.31h5.63v5.89h-5.63z"/><path clip-path="url(#a)" d="m436.62 280.88h5.68v5.95h-5.68z"/><path clip-path="url(#a)" d="m436.62 288.55h5.68v5.95h-5.68z"/><path clip-path="url(#a)" d="m436.69 295.96h5.68v5.95h-5.68z"/><path clip-path="url(#a)" d="m443.94 280.86h5.69v5.95h-5.69z"/><path clip-path="url(#a)" d="m443.94 288.54h5.69v5.95h-5.69z"/><path clip-path="url(#a)" d="m444 295.95h5.69v5.95h-5.69z"/><path clip-path="url(#a)" d="m436.73 303.42h5.63v5.89h-5.63z"/><path clip-path="url(#a)" d="m443.98 303.4h5.63v5.89h-5.63z"/><path clip-path="url(#a)" d="m487.95 280.88h5.68v5.95h-5.68z"/><path clip-path="url(#a)" d="m487.95 288.55h5.68v5.95h-5.68z"/><path clip-path="url(#a)" d="m488.01 295.96h5.69v5.95h-5.69z"/><path clip-path="url(#a)" d="m495.26 280.86h5.69v5.95h-5.69z"/><path clip-path="url(#a)" d="m495.26 288.54h5.69v5.95h-5.69z"/><path clip-path="url(#a)" d="m495.33 295.95h5.68v5.95h-5.68z"/><path clip-path="url(#a)" d="m488.06 303.42h5.63v5.89h-5.63z"/><path clip-path="url(#a)" d="m495.3 303.4h5.63v5.89h-5.63z"/><path clip-path="url(#a)" d="m334.21 222.42h5.74v6.01h-5.74z"/><path clip-path="url(#a)" d="m334.21 230.17h5.74v6.01h-5.74z"/><path clip-path="url(#a)" d="m334.28 237.65h5.74v6.01h-5.74z"/><path clip-path="url(#a)" d="m341.6 222.4h5.74v6.01h-5.74z"/><path clip-path="url(#a)" d="m341.6 230.15h5.74v6.01h-5.74z"/><path clip-path="url(#a)" d="m341.67 237.64h5.74v6.01h-5.74z"/><path clip-path="url(#a)" d="m334.33 245.18h5.68v5.95h-5.68z"/><path clip-path="url(#a)" d="m341.64 245.17h5.68v5.95h-5.68z"/><path clip-path="url(#a)" d="m385.32 222.56h5.68v5.95h-5.68z"/><path clip-path="url(#a)" d="m385.32 230.24h5.68v5.95h-5.68z"/><path clip-path="url(#a)" d="m385.38 237.65h5.68v5.95h-5.68z"/><path clip-path="url(#a)" d="m392.64 222.55h5.68v5.95h-5.68z"/><path clip-path="url(#a)" d="m392.64 230.22h5.68v5.95h-5.68z"/><path clip-path="url(#a)" d="m392.7 237.63h5.68v5.95h-5.68z"/><path clip-path="url(#a)" d="m385.43 245.1h5.63v5.89h-5.63z"/><path clip-path="url(#a)" d="m392.67 245.08h5.63v5.89h-5.63z"/><path clip-path="url(#a)" d="m268.65 162.8h8.34" fill="none" stroke="#fff" stroke-width=".959"/><path clip-path="url(#a)" d="m268.58 169.04h8.34" fill="none" stroke="#fff" stroke-width=".959"/><path clip-path="url(#a)" d="m268.65 165.84h8.34" fill="none" stroke="#fff" stroke-width=".959"/><path clip-path="url(#a)" d="m268.61 172.45h8.35" fill="none" stroke="#fff" stroke-width=".959"/><path clip-path="url(#a)" d="m268.65 178.75h8.34" fill="none" stroke="#fff" stroke-width=".959"/><path clip-path="url(#a)" d="m268.61 185.1h8.35" fill="none" stroke="#fff" stroke-width=".959"/><path clip-path="url(#a)" d="m268.54 175.58h8.42" fill="none" stroke="#fff" stroke-width=".959"/><path clip-path="url(#a)" d="m268.59 181.9h8.39" fill="none" stroke="#fff" stroke-width=".959"/><path clip-path="url(#a)" d="m268.63 188.33h8.49" fill="none" stroke="#fff" stroke-width=".959"/><path clip-path="url(#a)" d="m300.58 160.46h11.31v30.11h-11.31z"/><path clip-path="url(#a)" d="m302.21 162.8h8.34" fill="none" stroke="#fff" stroke-width=".959"/><path clip-path="url(#a)" d="m302.14 169.04h8.34" fill="none" stroke="#fff" stroke-width=".959"/><path clip-path="url(#a)" d="m302.21 165.84h8.34" fill="none" stroke="#fff" stroke-width=".959"/><path clip-path="url(#a)" d="m302.17 172.45h8.35" fill="none" stroke="#fff" stroke-width=".959"/><path clip-path="url(#a)" d="m302.21 178.75h8.34" fill="none" stroke="#fff" stroke-width=".959"/><path clip-path="url(#a)" d="m302.17 185.1h8.35" fill="none" stroke="#fff" stroke-width=".959"/><path clip-path="url(#a)" d="m302.1 175.58h8.42" fill="none" stroke="#fff" stroke-width=".959"/><path clip-path="url(#a)" d="m302.15 181.9h8.39" fill="none" stroke="#fff" stroke-width=".959"/><path clip-path="url(#a)" d="m302.19 188.33h8.49" fill="none" stroke="#fff" stroke-width=".959"/><path clip-path="url(#a)" d="m299.84 191.55h-8.49-3.54-8.49c-.73 0-1.39.49-1.16.92.16.3.45.56.77.8.57.43.82.65 1.7.65h2.1 5.09.5 2.54.5 5.09 2.1c.87 0 1.12-.22 1.7-.65.32-.24.61-.49.77-.8.21-.43-.45-.92-1.18-.92"/><path clip-path="url(#a)" d="m318.56 160.46h11.31v30.11h-11.31z"/><path clip-path="url(#a)" d="m331.82 162.08h18.42v26.88h-18.42z" fill="#fff"/><path clip-path="url(#a)" d="m331.82 162.08h18.42v26.88h-18.42z" fill="none" stroke="#000" stroke-width="2.042"/><path clip-path="url(#a)" d="m320.19 162.8h8.34" fill="none" stroke="#fff" stroke-width=".959"/><path clip-path="url(#a)" d="m320.12 169.04h8.34" fill="none" stroke="#fff" stroke-width=".959"/><path clip-path="url(#a)" d="m320.19 165.84h8.34" fill="none" stroke="#fff" stroke-width=".959"/><path clip-path="url(#a)" d="m320.15 172.45h8.34" fill="none" stroke="#fff" stroke-width=".959"/><path clip-path="url(#a)" d="m320.19 178.75h8.34" fill="none" stroke="#fff" stroke-width=".959"/><path clip-path="url(#a)" d="m320.15 185.1h8.34" fill="none" stroke="#fff" stroke-width=".959"/><path clip-path="url(#a)" d="m320.08 175.58h8.41" fill="none" stroke="#fff" stroke-width=".959"/><path clip-path="url(#a)" d="m320.13 181.9h8.39" fill="none" stroke="#fff" stroke-width=".959"/><path clip-path="url(#a)" d="m320.17 188.33h8.49" fill="none" stroke="#fff" stroke-width=".959"/><path clip-path="url(#a)" d="m352.12 160.46h11.31v30.11h-11.31z"/><path clip-path="url(#a)" d="m353.75 162.8h8.34" fill="none" stroke="#fff" stroke-width=".959"/><path clip-path="url(#a)" d="m353.68 169.04h8.34" fill="none" stroke="#fff" stroke-width=".959"/><path clip-path="url(#a)" d="m353.75 165.84h8.34" fill="none" stroke="#fff" stroke-width=".959"/><path clip-path="url(#a)" d="m353.71 172.45h8.35" fill="none" stroke="#fff" stroke-width=".959"/><path clip-path="url(#a)" d="m353.75 178.75h8.34" fill="none" stroke="#fff" stroke-width=".959"/><path clip-path="url(#a)" d="m353.71 185.1h8.35" fill="none" stroke="#fff" stroke-width=".959"/><path clip-path="url(#a)" d="m353.64 175.58h8.41" fill="none" stroke="#fff" stroke-width=".959"/><path clip-path="url(#a)" d="m353.69 181.9h8.39" fill="none" stroke="#fff" stroke-width=".959"/><path clip-path="url(#a)" d="m353.73 188.33h8.49" fill="none" stroke="#fff" stroke-width=".959"/><path clip-path="url(#a)" d="m351.38 191.55h-8.49-3.54-8.49c-.73 0-1.39.49-1.16.92.16.3.45.56.77.8.57.43.82.65 1.7.65h2.1 5.09.5 2.54.5 5.09 2.1c.87 0 1.12-.22 1.7-.65.32-.24.61-.49.77-.8.21-.43-.45-.92-1.18-.92"/><path clip-path="url(#a)" d="m370.12 160.46h11.31v30.11h-11.31z"/><path clip-path="url(#a)" d="m383.38 162.08h18.43v26.88h-18.43z" fill="#fff"/><path clip-path="url(#a)" d="m383.38 162.08h18.43v26.88h-18.43z" fill="none" stroke="#000" stroke-width="2.042"/><path clip-path="url(#a)" d="m371.75 162.8h8.34" fill="none" stroke="#fff" stroke-width=".959"/><path clip-path="url(#a)" d="m371.68 169.04h8.34" fill="none" stroke="#fff" stroke-width=".959"/><path clip-path="url(#a)" d="m371.75 165.84h8.34" fill="none" stroke="#fff" stroke-width=".959"/><path clip-path="url(#a)" d="m371.71 172.45h8.34" fill="none" stroke="#fff" stroke-width=".959"/><path clip-path="url(#a)" d="m371.75 178.75h8.34" fill="none" stroke="#fff" stroke-width=".959"/><path clip-path="url(#a)" d="m371.71 185.1h8.34" fill="none" stroke="#fff" stroke-width=".959"/><path clip-path="url(#a)" d="m371.64 175.58h8.41" fill="none" stroke="#fff" stroke-width=".959"/><path clip-path="url(#a)" d="m371.69 181.9h8.39" fill="none" stroke="#fff" stroke-width=".959"/><path clip-path="url(#a)" d="m371.73 188.33h8.49" fill="none" stroke="#fff" stroke-width=".959"/><path clip-path="url(#a)" d="m403.68 160.46h11.31v30.11h-11.31z"/><path clip-path="url(#a)" d="m405.31 162.8h8.34" fill="none" stroke="#fff" stroke-width=".959"/><path clip-path="url(#a)" d="m405.24 169.04h8.34" fill="none" stroke="#fff" stroke-width=".959"/><path clip-path="url(#a)" d="m405.31 165.84h8.34" fill="none" stroke="#fff" stroke-width=".959"/><path clip-path="url(#a)" d="m405.27 172.45h8.34" fill="none" stroke="#fff" stroke-width=".959"/><path clip-path="url(#a)" d="m405.31 178.75h8.34" fill="none" stroke="#fff" stroke-width=".959"/><path clip-path="url(#a)" d="m405.27 185.1h8.34" fill="none" stroke="#fff" stroke-width=".959"/><path clip-path="url(#a)" d="m405.2 175.58h8.41" fill="none" stroke="#fff" stroke-width=".959"/><path clip-path="url(#a)" d="m405.25 181.9h8.39" fill="none" stroke="#fff" stroke-width=".959"/><path clip-path="url(#a)" d="m405.29 188.33h8.49" fill="none" stroke="#fff" stroke-width=".959"/><path clip-path="url(#a)" d="m402.94 191.55h-8.49-3.54-8.49c-.73 0-1.39.49-1.16.92.16.3.45.56.77.8.57.43.82.65 1.7.65h2.1 5.09.5 2.54.5 5.09 2.1c.87 0 1.12-.22 1.7-.65.32-.24.61-.49.77-.8.21-.43-.45-.92-1.18-.92"/><path clip-path="url(#a)" d="m247.64 248.93h-8.49-3.54-8.49c-.73 0-1.39.49-1.16.92.16.3.45.56.77.8.57.43.82.65 1.7.65h2.1 5.09.5 2.54.5 5.09 2.1c.87 0 1.12-.22 1.7-.65.32-.24.61-.49.77-.8.21-.42-.45-.91-1.18-.92"/><path clip-path="url(#a)" d="m196.34 315.2h-8.49-3.54-8.49c-.73 0-1.39.49-1.16.92.16.3.45.56.77.8.57.43.82.65 1.7.65h2.1 5.09.5 2.54.5 5.09 2.1c.87 0 1.12-.22 1.7-.65.32-.24.61-.49.77-.8.21-.42-.45-.91-1.18-.92"/><path clip-path="url(#a)" d="m247.64 315.2h-8.49-3.54-8.49c-.73 0-1.39.49-1.16.92.16.3.45.56.77.8.57.43.82.65 1.7.65h2.1 5.09.5 2.54.5 5.09 2.1c.87 0 1.12-.22 1.7-.65.32-.24.61-.49.77-.8.21-.42-.45-.91-1.18-.92"/><path clip-path="url(#a)" d="m299.44 315.2h-8.49-3.54-8.49c-.73 0-1.39.49-1.16.92.16.3.45.56.77.8.57.43.82.65 1.7.65h2.1 5.09.5 2.54.5 5.09 2.1c.87 0 1.12-.22 1.7-.65.32-.24.61-.49.77-.8.2-.42-.45-.91-1.18-.92"/><path clip-path="url(#a)" d="m350.74 315.2h-8.49-3.54-8.49c-.73 0-1.39.49-1.16.92.16.3.45.56.77.8.57.43.82.65 1.7.65h2.1 5.09.5 2.54.5 5.09 2.1c.87 0 1.12-.22 1.7-.65.32-.24.61-.49.77-.8.21-.42-.45-.91-1.18-.92"/><path clip-path="url(#a)" d="m402.54 315.2h-8.49-3.54-8.49c-.73 0-1.39.49-1.16.92.16.3.45.56.77.8.57.43.82.65 1.7.65h2.1 5.09.5 2.54.5 5.09 2.1c.87 0 1.12-.22 1.7-.65.32-.24.61-.49.77-.8.2-.42-.45-.91-1.18-.92"/><path clip-path="url(#a)" d="m453.84 315.2h-8.49-3.54-8.49c-.73 0-1.39.49-1.16.92.16.3.45.56.77.8.57.43.82.65 1.7.65h2.1 5.09.5 2.54.5 5.09 2.1c.87 0 1.12-.22 1.7-.65.32-.24.61-.49.77-.8.2-.42-.45-.91-1.18-.92"/><path clip-path="url(#a)" d="m504.88 315.2h-8.49-3.54-8.49c-.73 0-1.39.49-1.16.92.16.3.45.56.77.8.57.43.82.65 1.7.65h2.1 5.09.5 2.54.5 5.09 2.1c.87 0 1.12-.22 1.7-.65.32-.24.61-.49.77-.8.2-.42-.45-.91-1.18-.92"/><path clip-path="url(#a)" d="m196.55 274.56h-8.49-3.54-8.49c-.73 0-1.39-.49-1.16-.92.16-.3.45-.56.77-.8.57-.43.82-.65 1.7-.65h2.1 5.09.5 2.54.5 5.09 2.1c.87 0 1.12.22 1.7.65.32.24.61.49.77.8.21.43-.45.92-1.18.92"/><path clip-path="url(#a)" d="m247.85 274.56h-8.49-3.54-8.49c-.73 0-1.39-.49-1.16-.92.16-.3.45-.56.77-.8.57-.43.82-.65 1.7-.65h2.1 5.09.5 2.54.5 5.09 2.1c.87 0 1.12.22 1.7.65.32.24.61.49.77.8.21.43-.45.92-1.18.92"/><path clip-path="url(#a)" d="m299.65 274.56h-8.49-3.54-8.49c-.73 0-1.39-.49-1.16-.92.16-.3.45-.56.77-.8.57-.43.82-.65 1.7-.65h2.1 5.09.5 2.54.5 5.09 2.1c.87 0 1.12.22 1.7.65.32.24.61.49.77.8.21.43-.45.92-1.18.92"/><path clip-path="url(#a)" d="m350.95 274.56h-8.49-3.54-8.49c-.73 0-1.39-.49-1.16-.92.16-.3.45-.56.77-.8.57-.43.82-.65 1.7-.65h2.1 5.09.5 2.54.5 5.09 2.1c.87 0 1.12.22 1.7.65.32.24.61.49.77.8.21.43-.45.92-1.18.92"/><path clip-path="url(#a)" d="m402.75 274.56h-8.49-3.54-8.49c-.73 0-1.39-.49-1.16-.92.16-.3.45-.56.77-.8.57-.43.82-.65 1.7-.65h2.1 5.09.5 2.54.5 5.09 2.1c.87 0 1.12.22 1.7.65.32.24.61.49.77.8.21.43-.45.92-1.18.92"/><path clip-path="url(#a)" d="m454.05 274.56h-8.49-3.54-8.49c-.73 0-1.39-.49-1.16-.92.16-.3.45-.56.77-.8.57-.43.82-.65 1.69-.65h2.1 5.09.5 2.54.5 5.09 2.1c.87 0 1.12.22 1.7.65.32.24.61.49.77.8.22.43-.44.92-1.17.92"/><path clip-path="url(#a)" d="m505.09 274.56h-8.49-3.54-8.49c-.73 0-1.39-.49-1.16-.92.16-.3.45-.56.77-.8.57-.43.82-.65 1.7-.65h2.1 5.09.5 2.54.5 5.09 2.1c.87 0 1.12.22 1.7.65.32.24.61.49.77.8.2.43-.45.92-1.18.92"/><path clip-path="url(#a)" d="m256.96 277.13h11.17v46.64h-11.17z" fill="#888a8c"/><path clip-path="url(#a)" d="m256.96 277.13h11.17v46.64h-11.17z" fill="none" stroke="#000" stroke-miterlimit="10" stroke-width="1.021"/><path clip-path="url(#a)" d="m308.26 277.13h11.17v46.64h-11.17z" fill="#888a8c"/><path clip-path="url(#a)" d="m308.26 277.13h11.17v46.64h-11.17z" fill="none" stroke="#000" stroke-miterlimit="10" stroke-width="1.021"/><path clip-path="url(#a)" d="m360.03 277.13h11.17v46.64h-11.17z" fill="#888a8c"/><path clip-path="url(#a)" d="m360.03 277.13h11.17v46.64h-11.17z" fill="none" stroke="#000" stroke-miterlimit="10" stroke-width="1.021"/><path clip-path="url(#a)" d="m410.7 276.88h11.17v46.64h-11.17z" fill="#888a8c"/><path clip-path="url(#a)" d="m410.7 276.88h11.17v46.64h-11.17z" fill="none" stroke="#000" stroke-miterlimit="10" stroke-width="1.021"/><path clip-path="url(#a)" d="m271.54 340.8c-.09-.47.31-1.45-.35-1.46-.03 0-.61 0-1.45 0v-13.79c0-1-.57-1.81-1.27-1.81h-11.19c-.7 0-1.28.81-1.28 1.81v13.79c-.58 0-.96 0-.98 0-.66.01-.26.99-.35 1.46-.17.86-.13.88-.83 1.39v1.94h8.99.58 8.99v-1.94c-.73-.51-.7-.53-.86-1.39" fill="#fff"/><path clip-path="url(#a)" d="m271.54 340.8c-.09-.47.31-1.45-.35-1.46-.03 0-.61 0-1.45 0v-13.79c0-1-.57-1.81-1.27-1.81h-11.19c-.7 0-1.28.81-1.28 1.81v13.79c-.58 0-.96 0-.98 0-.66.01-.26.99-.35 1.46-.17.86-.13.88-.83 1.39v1.94h8.99.58 8.99v-1.94c-.73-.51-.7-.53-.86-1.39z" fill="none" stroke="#000" stroke-width="1.021"/><path clip-path="url(#a)" d="m255.99 338.51h13.75" fill="none" stroke="#000" stroke-width="1.021"/><path clip-path="url(#a)" d="m253.94 341.79h18.45" fill="#fff"/><path clip-path="url(#a)" d="m253.94 341.79h18.45" fill="none" stroke="#000" stroke-width="1.021"/><path clip-path="url(#a)" d="m322.84 340.8c-.09-.47.31-1.45-.35-1.46-.03 0-.61 0-1.45 0v-13.79c0-1-.57-1.81-1.27-1.81h-11.19c-.7 0-1.28.81-1.28 1.81v13.79c-.58 0-.96 0-.98 0-.66.01-.26.99-.35 1.46-.17.86-.13.88-.83 1.39v1.94h8.99.58 8.99v-1.94c-.73-.51-.7-.53-.86-1.39" fill="#fff"/><path clip-path="url(#a)" d="m322.84 340.8c-.09-.47.31-1.45-.35-1.46-.03 0-.61 0-1.45 0v-13.79c0-1-.57-1.81-1.27-1.81h-11.19c-.7 0-1.28.81-1.28 1.81v13.79c-.58 0-.96 0-.98 0-.66.01-.26.99-.35 1.46-.17.86-.13.88-.83 1.39v1.94h8.99.58 8.99v-1.94c-.73-.51-.7-.53-.86-1.39z" fill="none" stroke="#000" stroke-width="1.021"/><path clip-path="url(#a)" d="m307.29 338.51h13.75" fill="none" stroke="#000" stroke-width="1.021"/><path clip-path="url(#a)" d="m305.24 341.79h18.45" fill="#fff"/><path clip-path="url(#a)" d="m305.24 341.79h18.45" fill="none" stroke="#000" stroke-width="1.021"/><path clip-path="url(#a)" d="m425.29 341.06c-.09-.48.31-1.49-.35-1.5-.03 0-.61 0-1.45 0v-14.19c0-1.03-.57-1.87-1.27-1.87h-11.19c-.71 0-1.28.83-1.28 1.87v14.19c-.58 0-.96 0-.98 0-.66.01-.26 1.02-.35 1.5-.17.89-.13.91-.83 1.43v2h8.99.58 8.99v-2c-.73-.52-.7-.54-.86-1.43" fill="#fff"/><path clip-path="url(#a)" d="m425.29 341.06c-.09-.48.31-1.49-.35-1.5-.03 0-.61 0-1.45 0v-14.19c0-1.03-.57-1.87-1.27-1.87h-11.19c-.71 0-1.28.83-1.28 1.87v14.19c-.58 0-.96 0-.98 0-.66.01-.26 1.02-.35 1.5-.17.89-.13.91-.83 1.43v2h8.99.58 8.99v-2c-.73-.52-.7-.54-.86-1.43z" fill="none" stroke="#000" stroke-width="1.021"/><path clip-path="url(#a)" d="m409.74 338.7h13.75" fill="none" stroke="#000" stroke-width="1.021"/><path clip-path="url(#a)" d="m407.69 342.08h18.45" fill="#fff"/><path clip-path="url(#a)" d="m407.69 342.08h18.45" fill="none" stroke="#000" stroke-width="1.021"/><path clip-path="url(#a)" d="m269.18 272.05h-5.46-2.27-5.46c-.47 0-.89 1.02-.75 1.92.1.62.29 1.16.5 1.65.37.89.53 1.34 1.09 1.34h1.35 3.27.32 1.63.32 3.27 1.35c.56 0 .72-.45 1.09-1.34.21-.49.4-1.03.49-1.65.15-.9-.27-1.92-.74-1.92" fill="#fff"/><path clip-path="url(#a)" d="m269.18 272.05h-5.46-2.27-5.46c-.47 0-.89 1.02-.75 1.92.1.62.29 1.16.5 1.65.37.89.53 1.34 1.09 1.34h1.35 3.27.32 1.63.32 3.27 1.35c.56 0 .72-.45 1.09-1.34.21-.49.4-1.03.49-1.65.15-.9-.27-1.92-.74-1.92z" fill="none" stroke="#000" stroke-width=".959"/><path clip-path="url(#a)" d="m255.24 274.33h14.68" fill="none" stroke="#000" stroke-width=".959"/><path clip-path="url(#a)" d="m320.48 272.05h-5.46-2.27-5.46c-.47 0-.89 1.02-.75 1.92.1.62.29 1.16.5 1.65.37.89.53 1.34 1.09 1.34h1.35 3.27.32 1.63.32 3.27 1.35c.56 0 .72-.45 1.09-1.34.21-.49.39-1.03.5-1.65.14-.9-.28-1.92-.75-1.92" fill="#fff"/><path clip-path="url(#a)" d="m320.48 272.05h-5.46-2.27-5.46c-.47 0-.89 1.02-.75 1.92.1.62.29 1.16.5 1.65.37.89.53 1.34 1.09 1.34h1.35 3.27.32 1.63.32 3.27 1.35c.56 0 .72-.45 1.09-1.34.21-.49.39-1.03.5-1.65.14-.9-.28-1.92-.75-1.92z" fill="none" stroke="#000" stroke-width=".959"/><path clip-path="url(#a)" d="m306.54 274.33h14.68" fill="none" stroke="#000" stroke-width=".959"/><path clip-path="url(#a)" d="m372.26 272.05h-5.46-2.27-5.46c-.47 0-.89 1.02-.75 1.92.1.62.29 1.16.5 1.65.37.89.53 1.34 1.09 1.34h1.35 3.27.32 1.63.32 3.27 1.35c.56 0 .72-.45 1.09-1.34.21-.49.4-1.03.49-1.65.15-.9-.27-1.92-.74-1.92" fill="#fff"/><path clip-path="url(#a)" d="m372.26 272.05h-5.46-2.27-5.46c-.47 0-.89 1.02-.75 1.92.1.62.29 1.16.5 1.65.37.89.53 1.34 1.09 1.34h1.35 3.27.32 1.63.32 3.27 1.35c.56 0 .72-.45 1.09-1.34.21-.49.4-1.03.49-1.65.15-.9-.27-1.92-.74-1.92z" fill="none" stroke="#000" stroke-width=".959"/><path clip-path="url(#a)" d="m358.32 274.33h14.68" fill="none" stroke="#000" stroke-width=".959"/><path clip-path="url(#a)" d="m422.93 271.8h-5.46-2.27-5.46c-.47 0-.89 1.02-.75 1.92.1.62.29 1.16.5 1.65.37.89.53 1.34 1.09 1.34h1.35 3.27.32 1.63.32 3.27 1.35c.56 0 .72-.45 1.09-1.34.21-.49.4-1.03.49-1.65.15-.9-.28-1.92-.74-1.92" fill="#fff"/><path clip-path="url(#a)" d="m422.93 271.8h-5.46-2.27-5.46c-.47 0-.89 1.02-.75 1.92.1.62.29 1.16.5 1.65.37.89.53 1.34 1.09 1.34h1.35 3.27.32 1.63.32 3.27 1.35c.56 0 .72-.45 1.09-1.34.21-.49.4-1.03.49-1.65.15-.9-.28-1.92-.74-1.92z" fill="none" stroke="#000" stroke-width=".959"/><path clip-path="url(#a)" d="m408.99 274.08h14.68" fill="none" stroke="#000" stroke-width=".959"/><path clip-path="url(#a)" d="m276.49 572.24-6.28.02-.11-31.59-6.06 2.64-.02-5.44c2.28-.74 4.29-1.9 6.05-3.47l6.28-.03z" fill="#fff"/><path clip-path="url(#a)" d="m316.85 552.19c3 .82 5.31 2.05 6.92 3.68s2.42 3.49 2.43 5.58c.01 3.48-1.72 6.23-5.2 8.22-3.48 2-8.46 3.01-14.94 3.03s-11.49-.95-15-2.92c-3.51-1.98-5.28-4.7-5.29-8.19-.01-2.09.79-3.95 2.39-5.59 1.6-1.65 3.89-2.89 6.89-3.74-4.47-1.45-6.72-4.05-6.73-7.81-.01-3.27 1.5-5.86 4.55-7.75 3.04-1.89 7.35-2.85 12.93-2.87 5.62-.02 9.97.9 13.07 2.77s4.64 4.45 4.65 7.71c.01 3.78-2.21 6.4-6.67 7.88m2.81 8.78c-.02-3.99-4.57-5.97-13.67-5.94-9.14.03-13.7 2.04-13.68 6.03.01 3.96 4.59 5.92 13.73 5.89 9.09-.03 13.63-2.03 13.62-5.98m-2.42-16.52c-.01-3.33-3.78-4.98-11.32-4.96-7.57.03-11.34 1.71-11.33 5.04.01 1.7.99 3.04 2.94 3.99 1.95.97 4.77 1.45 8.43 1.43 3.66-.01 6.46-.51 8.39-1.49 1.93-.97 2.9-2.31 2.89-4.01" fill="#fff"/><path clip-path="url(#a)" d="m363.56 552.02c3 .82 5.31 2.05 6.92 3.68 1.61 1.64 2.42 3.49 2.43 5.58.02 3.48-1.72 6.22-5.2 8.22-3.49 2-8.47 3.01-14.95 3.03-6.49.02-11.48-.95-15-2.93-3.51-1.97-5.28-4.7-5.29-8.18-.01-2.09.79-3.95 2.39-5.59 1.6-1.65 3.89-2.89 6.89-3.74-4.47-1.44-6.72-4.05-6.73-7.81-.01-3.27 1.5-5.85 4.55-7.75 3.04-1.89 7.35-2.85 12.93-2.87 5.61-.02 9.97.9 13.06 2.77 3.1 1.87 4.65 4.44 4.66 7.71.02 3.78-2.21 6.4-6.66 7.88m2.8 8.78c-.02-3.99-4.57-5.97-13.67-5.94-9.14.03-13.7 2.04-13.68 6.03.01 3.96 4.59 5.92 13.73 5.89 9.1-.03 13.64-2.03 13.62-5.98m-2.41-16.52c-.01-3.33-3.78-4.98-11.31-4.95-7.57.03-11.35 1.71-11.33 5.04.01 1.7.98 3.03 2.94 3.99 1.96.97 4.77 1.44 8.43 1.43s6.46-.51 8.39-1.49c1.92-.98 2.88-2.32 2.88-4.02" fill="#fff"/><path clip-path="url(#a)" d="m408.7 551.8c5.13 1.69 7.7 4.79 7.72 9.29.01 3.49-1.69 6.22-5.1 8.19-3.52 2.04-8.48 3.07-14.9 3.09-4.22.02-7.85-.56-10.88-1.74-3.18-1.2-6.06-3.16-8.65-5.88l4.17-4.2c4.55 4.14 9.89 6.19 16.02 6.17 8.48-.03 12.71-2.17 12.69-6.4-.02-3.78-5.04-5.65-15.08-5.62-1.29.01-2.29.01-2.99.01l-.02-5.07 5.77-.02c7.07-.03 10.59-1.92 10.58-5.66-.01-3.29-3.46-4.93-10.34-4.9-5.24.02-10.07 1.47-14.5 4.34l-3.62-3.88c5.77-4.05 11.77-6.09 18.02-6.11 5.3-.02 9.44.9 12.41 2.76 2.97 1.85 4.46 4.36 4.47 7.49.02 3.66-1.91 6.38-5.77 8.14" fill="#fff"/><path clip-path="url(#a)" d="m328.75 157.74h-6.11l18.38-13.79 18.32 13.73h-5.99l-12.33-9.19z"/><path clip-path="url(#a)" d="m380.1 157.79h-6.1l18.4-13.78 18.37 13.67h-6.06l-12.31-9.19z"/><path clip-path="url(#a)" d="m276.91 157.95h-6.17l18.47-13.78 18.29 13.72h-6.06l-12.23-9.21z"/><text transform="matrix(1.0052 0 0 1 140.2036 496.9855)"><tspan fill="#fff" font-family="'Futura-CondensedMedium'" font-size="164.7969" letter-spacing=".99" x="0" y="0">S</tspan><tspan fill="#fff" font-family="'Futura-CondensedMedium'" font-size="164.7969" x="63.45" y="0">TUDER</tspan></text><path clip-path="url(#b)" d="m334.42 164.95h5.8v6.07h-5.8z"/><path clip-path="url(#b)" d="m334.42 172.77h5.8v6.07h-5.8z"/><path clip-path="url(#b)" d="m334.49 180.33h5.8v6.07h-5.8z"/><path clip-path="url(#b)" d="m341.88 164.93h5.8v6.07h-5.8z"/><path clip-path="url(#b)" d="m341.88 172.76h5.8v6.07h-5.8z"/><path clip-path="url(#b)" d="m341.95 180.32h5.8v6.07h-5.8z"/><path clip-path="url(#b)" d="m385.98 164.95h5.8v6.07h-5.8z"/><path clip-path="url(#b)" d="m385.98 172.77h5.8v6.07h-5.8z"/><path clip-path="url(#b)" d="m386.05 180.33h5.8v6.07h-5.8z"/><path clip-path="url(#b)" d="m393.44 164.93h5.8v6.07h-5.8z"/><path clip-path="url(#b)" d="m393.44 172.76h5.8v6.07h-5.8z"/><path clip-path="url(#b)" d="m393.51 180.32h5.8v6.07h-5.8z"/><g fill="none"><path clip-path="url(#b)" d="m301.57 220.21h8.34" stroke="#fff" stroke-width="1.021"/><path clip-path="url(#b)" d="m301.5 226.45h8.34" stroke="#fff" stroke-width="1.021"/><path clip-path="url(#b)" d="m301.57 223.25h8.34" stroke="#fff" stroke-width="1.021"/><path clip-path="url(#b)" d="m301.53 229.86h8.35" stroke="#fff" stroke-width="1.021"/><path clip-path="url(#b)" d="m301.57 236.17h8.34" stroke="#fff" stroke-width="1.021"/><path clip-path="url(#b)" d="m301.53 242.51h8.35" stroke="#fff" stroke-width="1.021"/><path clip-path="url(#b)" d="m301.46 233h8.42" stroke="#fff" stroke-width="1.021"/><path clip-path="url(#b)" d="m301.51 239.31h8.39" stroke="#fff" stroke-width="1.021"/><path clip-path="url(#b)" d="m301.55 245.74h8.49" stroke="#fff" stroke-width="1.021"/><path clip-path="url(#b)" d="m301.58 248.92h8.34" stroke="#fff" stroke-width="1.021"/><path clip-path="url(#b)" d="m320 220.21h8.34" stroke="#fff" stroke-width="1.021"/><path clip-path="url(#b)" d="m319.93 226.45h8.34" stroke="#fff" stroke-width="1.021"/><path clip-path="url(#b)" d="m320 223.25h8.34" stroke="#fff" stroke-width="1.021"/><path clip-path="url(#b)" d="m319.97 229.86h8.34" stroke="#fff" stroke-width="1.021"/><path clip-path="url(#b)" d="m320 236.17h8.34" stroke="#fff" stroke-width="1.021"/><path clip-path="url(#b)" d="m319.97 242.51h8.34" stroke="#fff" stroke-width="1.021"/><path clip-path="url(#b)" d="m319.9 233h8.41" stroke="#fff" stroke-width="1.021"/><path clip-path="url(#b)" d="m319.94 239.31h8.4" stroke="#fff" stroke-width="1.021"/><path clip-path="url(#b)" d="m319.98 245.74h8.5" stroke="#fff" stroke-width="1.021"/><path clip-path="url(#b)" d="m320.01 248.92h8.35" stroke="#fff" stroke-width="1.021"/><path clip-path="url(#b)" d="m353.66 220.21h8.35" stroke="#fff" stroke-width="1.021"/><path clip-path="url(#b)" d="m353.59 226.45h8.35" stroke="#fff" stroke-width="1.021"/><path clip-path="url(#b)" d="m353.66 223.25h8.35" stroke="#fff" stroke-width="1.021"/><path clip-path="url(#b)" d="m353.63 229.86h8.34" stroke="#fff" stroke-width="1.021"/><path clip-path="url(#b)" d="m353.66 236.17h8.35" stroke="#fff" stroke-width="1.021"/><path clip-path="url(#b)" d="m353.63 242.51h8.34" stroke="#fff" stroke-width="1.021"/><path clip-path="url(#b)" d="m353.56 233h8.41" stroke="#fff" stroke-width="1.021"/><path clip-path="url(#b)" d="m353.6 239.31h8.4" stroke="#fff" stroke-width="1.021"/><path clip-path="url(#b)" d="m353.64 245.74h8.5" stroke="#fff" stroke-width="1.021"/><path clip-path="url(#b)" d="m353.68 248.92h8.34" stroke="#fff" stroke-width="1.021"/><path clip-path="url(#b)" d="m370.45 220.36h8.35" stroke="#fff" stroke-width="1.021"/><path clip-path="url(#b)" d="m370.39 226.6h8.34" stroke="#fff" stroke-width="1.021"/><path clip-path="url(#b)" d="m370.45 223.4h8.35" stroke="#fff" stroke-width="1.021"/><path clip-path="url(#b)" d="m370.42 230.01h8.34" stroke="#fff" stroke-width="1.021"/><path clip-path="url(#b)" d="m370.45 236.32h8.35" stroke="#fff" stroke-width="1.021"/><path clip-path="url(#b)" d="m370.42 242.66h8.34" stroke="#fff" stroke-width="1.021"/><path clip-path="url(#b)" d="m370.35 233.15h8.41" stroke="#fff" stroke-width="1.021"/><path clip-path="url(#b)" d="m370.39 239.46h8.4" stroke="#fff" stroke-width="1.021"/><path clip-path="url(#b)" d="m370.43 245.89h8.5" stroke="#fff" stroke-width="1.021"/><path clip-path="url(#b)" d="m370.47 249.07h8.34" stroke="#fff" stroke-width="1.021"/><path clip-path="url(#b)" d="m404.72 220.36h8.35" stroke="#fff" stroke-width="1.021"/><path clip-path="url(#b)" d="m404.65 226.6h8.35" stroke="#fff" stroke-width="1.021"/><path clip-path="url(#b)" d="m404.72 223.4h8.35" stroke="#fff" stroke-width="1.021"/><path clip-path="url(#b)" d="m404.69 230.01h8.34" stroke="#fff" stroke-width="1.021"/><path clip-path="url(#b)" d="m404.72 236.32h8.35" stroke="#fff" stroke-width="1.021"/><path clip-path="url(#b)" d="m404.69 242.66h8.34" stroke="#fff" stroke-width="1.021"/><path clip-path="url(#b)" d="m404.62 233.15h8.41" stroke="#fff" stroke-width="1.021"/><path clip-path="url(#b)" d="m404.66 239.46h8.4" stroke="#fff" stroke-width="1.021"/><path clip-path="url(#b)" d="m404.7 245.89h8.5" stroke="#fff" stroke-width="1.021"/><path clip-path="url(#b)" d="m404.74 249.07h8.34" stroke="#fff" stroke-width="1.021"/><path clip-path="url(#b)" d="m269.36 257.06h9.34v9.34h-9.34z" stroke="#000" stroke-miterlimit="10" stroke-width=".782"/><path clip-path="url(#b)" d="m269.56 257.27 8.9 8.91" stroke="#000" stroke-miterlimit="10" stroke-width=".782"/><path clip-path="url(#b)" d="m278.48 257.27-8.91 8.94" stroke="#000" stroke-miterlimit="10" stroke-width=".782"/><path clip-path="url(#b)" d="m276.58 261.71c0 1.4-1.14 2.54-2.54 2.54s-2.54-1.14-2.54-2.54 1.14-2.54 2.54-2.54 2.54 1.14 2.54 2.54z" stroke="#000" stroke-miterlimit="10" stroke-width=".782"/></g><path clip-path="url(#b)" d="m274.71 261.75c0 .37-.3.67-.67.67s-.67-.3-.67-.67.3-.67.67-.67.67.3.67.67"/><path clip-path="url(#b)" d="m278.7 257.07h9.34v9.34h-9.34z" fill="none" stroke="#000" stroke-miterlimit="10" stroke-width=".782"/><path clip-path="url(#b)" d="m278.9 257.27 8.9 8.91" fill="none" stroke="#000" stroke-miterlimit="10" stroke-width=".782"/><path clip-path="url(#b)" d="m287.82 257.27-8.91 8.94" fill="none" stroke="#000" stroke-miterlimit="10" stroke-width=".782"/><ellipse clip-path="url(#b)" cx="283.38" cy="261.72" fill="none" rx="2.54" ry="2.54" stroke="#000" stroke-miterlimit="10" stroke-width=".782" transform="matrix(.2298 -.9732 .9732 .2298 -36.4466 477.3818)"/><path clip-path="url(#b)" d="m284.05 261.76c0 .37-.3.67-.67.67s-.67-.3-.67-.67.3-.67.67-.67.67.3.67.67"/><path clip-path="url(#b)" d="m288.04 257.06h9.34v9.34h-9.34z" fill="none" stroke="#000" stroke-miterlimit="10" stroke-width=".782"/><path clip-path="url(#b)" d="m288.24 257.27 8.9 8.91" fill="none" stroke="#000" stroke-miterlimit="10" stroke-width=".782"/><path clip-path="url(#b)" d="m297.16 257.27-8.91 8.94" fill="none" stroke="#000" stroke-miterlimit="10" stroke-width=".782"/><ellipse clip-path="url(#b)" cx="292.72" cy="261.72" fill="none" rx="2.54" ry="2.54" stroke="#000" stroke-miterlimit="10" stroke-width=".782" transform="matrix(.2298 -.9732 .9732 .2298 -29.2511 486.4706)"/><path clip-path="url(#b)" d="m293.39 261.76c0 .37-.3.67-.67.67s-.67-.3-.67-.67.3-.67.67-.67.67.3.67.67"/><path clip-path="url(#b)" d="m297.37 257.07h9.34v9.34h-9.34z" fill="none" stroke="#000" stroke-miterlimit="10" stroke-width=".782"/><path clip-path="url(#b)" d="m297.58 257.28 8.89 8.91" fill="none" stroke="#000" stroke-miterlimit="10" stroke-width=".782"/><path clip-path="url(#b)" d="m306.5 257.28-8.92 8.94" fill="none" stroke="#000" stroke-miterlimit="10" stroke-width=".782"/><path clip-path="url(#b)" d="m304.59 261.72c0 1.4-1.14 2.54-2.54 2.54s-2.54-1.14-2.54-2.54 1.14-2.54 2.54-2.54c1.41 0 2.54 1.14 2.54 2.54z" fill="none" stroke="#000" stroke-miterlimit="10" stroke-width=".782"/><path clip-path="url(#b)" d="m302.73 261.76c0 .37-.3.67-.67.67s-.67-.3-.67-.67.3-.67.67-.67.67.3.67.67"/><path clip-path="url(#b)" d="m269.73 323.81h9.34v9.34h-9.34z" fill="none" stroke="#000" stroke-miterlimit="10" stroke-width=".782"/><path clip-path="url(#b)" d="m269.94 324.02 8.9 8.91" fill="none" stroke="#000" stroke-miterlimit="10" stroke-width=".782"/><path clip-path="url(#b)" d="m278.86 324.02-8.91 8.94" fill="none" stroke="#000" stroke-miterlimit="10" stroke-width=".782"/><path clip-path="url(#b)" d="m276.95 328.47c0 1.4-1.14 2.54-2.54 2.54s-2.54-1.14-2.54-2.54 1.14-2.54 2.54-2.54c1.41-.01 2.54 1.13 2.54 2.54z" fill="none" stroke="#000" stroke-miterlimit="10" stroke-width=".782"/><path clip-path="url(#b)" d="m275.09 328.51c0 .37-.3.67-.67.67s-.67-.3-.67-.67.3-.67.67-.67.67.3.67.67"/><path clip-path="url(#b)" d="m279.07 323.82h9.34v9.34h-9.34z" fill="none" stroke="#000" stroke-miterlimit="10" stroke-width=".782"/><path clip-path="url(#b)" d="m279.27 324.03 8.9 8.91" fill="none" stroke="#000" stroke-miterlimit="10" stroke-width=".782"/><path clip-path="url(#b)" d="m288.19 324.03-8.91 8.94" fill="none" stroke="#000" stroke-miterlimit="10" stroke-width=".782"/><path clip-path="url(#b)" d="m286.29 328.47c0 1.4-1.14 2.54-2.54 2.54s-2.54-1.14-2.54-2.54 1.14-2.54 2.54-2.54 2.54 1.14 2.54 2.54z" fill="none" stroke="#000" stroke-miterlimit="10" stroke-width=".782"/><path clip-path="url(#b)" d="m284.42 328.51c0 .37-.3.67-.67.67s-.67-.3-.67-.67.3-.67.67-.67.67.3.67.67"/><path clip-path="url(#b)" d="m288.41 323.82h9.34v9.34h-9.34z" fill="none" stroke="#000" stroke-miterlimit="10" stroke-width=".782"/><path clip-path="url(#b)" d="m288.61 324.03 8.9 8.9" fill="none" stroke="#000" stroke-miterlimit="10" stroke-width=".782"/><path clip-path="url(#b)" d="m297.53 324.03-8.91 8.93" fill="none" stroke="#000" stroke-miterlimit="10" stroke-width=".782"/><ellipse clip-path="url(#b)" cx="293.09" cy="328.47" fill="none" rx="2.54" ry="2.54" stroke="#000" stroke-miterlimit="10" stroke-width=".782" transform="matrix(.2298 -.9732 .9732 .2298 -93.9329 538.2516)"/><path clip-path="url(#b)" d="m293.76 328.51c0 .37-.3.67-.67.67s-.67-.3-.67-.67.3-.67.67-.67.67.3.67.67"/><path clip-path="url(#b)" d="m297.75 323.83h9.34v9.34h-9.34z" fill="none" stroke="#000" stroke-miterlimit="10" stroke-width=".782"/><path clip-path="url(#b)" d="m297.95 324.03 8.9 8.91" fill="none" stroke="#000" stroke-miterlimit="10" stroke-width=".782"/><path clip-path="url(#b)" d="m306.87 324.03-8.91 8.94" fill="none" stroke="#000" stroke-miterlimit="10" stroke-width=".782"/><path clip-path="url(#b)" d="m304.97 328.48c0 1.4-1.14 2.54-2.54 2.54s-2.54-1.14-2.54-2.54 1.14-2.54 2.54-2.54c1.4-.01 2.54 1.13 2.54 2.54z" fill="none" stroke="#000" stroke-miterlimit="10" stroke-width=".782"/><path clip-path="url(#b)" d="m303.1 328.52c0 .37-.3.67-.67.67s-.67-.3-.67-.67.3-.67.67-.67.67.3.67.67"/><path clip-path="url(#b)" d="m218.58 323.62h9.34v9.34h-9.34z" fill="none" stroke="#000" stroke-miterlimit="10" stroke-width=".782"/><path clip-path="url(#b)" d="m218.78 323.83 8.9 8.91" fill="none" stroke="#000" stroke-miterlimit="10" stroke-width=".782"/><path clip-path="url(#b)" d="m227.7 323.83-8.91 8.94" fill="none" stroke="#000" stroke-miterlimit="10" stroke-width=".782"/><ellipse clip-path="url(#b)" cx="223.26" cy="328.28" fill="none" rx="2.54" ry="2.54" stroke="#000" stroke-miterlimit="10" stroke-width=".782" transform="matrix(.3827 -.9239 .9239 .3827 -165.4673 408.9107)"/><path clip-path="url(#b)" d="m223.93 328.32c0 .37-.3.67-.67.67s-.67-.3-.67-.67.3-.67.67-.67.67.3.67.67"/><path clip-path="url(#b)" d="m227.91 323.63h9.34v9.34h-9.34z" fill="none" stroke="#000" stroke-miterlimit="10" stroke-width=".782"/><path clip-path="url(#b)" d="m228.12 323.84 8.9 8.91" fill="none" stroke="#000" stroke-miterlimit="10" stroke-width=".782"/><path clip-path="url(#b)" d="m237.04 323.84-8.91 8.94" fill="none" stroke="#000" stroke-miterlimit="10" stroke-width=".782"/><path clip-path="url(#b)" d="m235.13 328.28c0 1.4-1.14 2.54-2.54 2.54s-2.54-1.14-2.54-2.54 1.14-2.54 2.54-2.54 2.54 1.14 2.54 2.54z" fill="none" stroke="#000" stroke-miterlimit="10" stroke-width=".782"/><path clip-path="url(#b)" d="m233.27 328.32c0 .37-.3.67-.67.67s-.67-.3-.67-.67.3-.67.67-.67.67.3.67.67"/><path clip-path="url(#b)" d="m237.25 323.63h9.34v9.34h-9.34z" fill="none" stroke="#000" stroke-miterlimit="10" stroke-width=".782"/><path clip-path="url(#b)" d="m237.46 323.84 8.9 8.9" fill="none" stroke="#000" stroke-miterlimit="10" stroke-width=".782"/><path clip-path="url(#b)" d="m246.38 323.84-8.91 8.93" fill="none" stroke="#000" stroke-miterlimit="10" stroke-width=".782"/><ellipse clip-path="url(#b)" cx="241.93" cy="328.28" fill="none" rx="2.54" ry="2.54" stroke="#000" stroke-miterlimit="10" stroke-width=".782" transform="matrix(.3827 -.9239 .9239 .3827 -153.9427 426.1683)"/><path clip-path="url(#b)" d="m242.61 328.32c0 .37-.3.67-.67.67s-.67-.3-.67-.67.3-.67.67-.67.67.3.67.67"/><path clip-path="url(#b)" d="m246.59 323.63h9.34v9.34h-9.34z" fill="none" stroke="#000" stroke-miterlimit="10" stroke-width=".782"/><path clip-path="url(#b)" d="m246.79 323.84 8.9 8.91" fill="none" stroke="#000" stroke-miterlimit="10" stroke-width=".782"/><path clip-path="url(#b)" d="m255.71 323.84-8.91 8.94" fill="none" stroke="#000" stroke-miterlimit="10" stroke-width=".782"/><path clip-path="url(#b)" d="m253.81 328.29c0 1.4-1.14 2.54-2.54 2.54s-2.54-1.14-2.54-2.54 1.14-2.54 2.54-2.54c1.4-.01 2.54 1.13 2.54 2.54z" fill="none" stroke="#000" stroke-miterlimit="10" stroke-width=".782"/><path clip-path="url(#b)" d="m251.94 328.33c0 .37-.3.67-.67.67s-.67-.3-.67-.67.3-.67.67-.67.67.3.67.67"/><path clip-path="url(#b)" d="m181.06 323.62h9.34v9.34h-9.34z" fill="none" stroke="#000" stroke-miterlimit="10" stroke-width=".782"/><path clip-path="url(#b)" d="m181.26 323.83 8.9 8.91" fill="none" stroke="#000" stroke-miterlimit="10" stroke-width=".782"/><path clip-path="url(#b)" d="m190.18 323.83-8.91 8.94" fill="none" stroke="#000" stroke-miterlimit="10" stroke-width=".782"/><path clip-path="url(#b)" d="m188.28 328.28c0 1.4-1.14 2.54-2.54 2.54s-2.54-1.14-2.54-2.54 1.14-2.54 2.54-2.54c1.4-.01 2.54 1.13 2.54 2.54z" fill="none" stroke="#000" stroke-miterlimit="10" stroke-width=".782"/><path clip-path="url(#b)" d="m186.41 328.32c0 .37-.3.67-.67.67s-.67-.3-.67-.67.3-.67.67-.67.67.3.67.67"/><path clip-path="url(#b)" d="m190.39 323.63h9.34v9.34h-9.34z" fill="none" stroke="#000" stroke-miterlimit="10" stroke-width=".782"/><path clip-path="url(#b)" d="m190.6 323.84 8.89 8.91" fill="none" stroke="#000" stroke-miterlimit="10" stroke-width=".782"/><path clip-path="url(#b)" d="m199.52 323.84-8.92 8.94" fill="none" stroke="#000" stroke-miterlimit="10" stroke-width=".782"/><path clip-path="url(#b)" d="m197.61 328.28c0 1.4-1.14 2.54-2.54 2.54s-2.54-1.14-2.54-2.54 1.14-2.54 2.54-2.54 2.54 1.14 2.54 2.54z" fill="none" stroke="#000" stroke-miterlimit="10" stroke-width=".782"/><path clip-path="url(#b)" d="m195.74 328.32c0 .37-.3.67-.67.67s-.67-.3-.67-.67.3-.67.67-.67.67.3.67.67"/><path clip-path="url(#b)" d="m199.73 323.63h9.34v9.34h-9.34z" fill="none" stroke="#000" stroke-miterlimit="10" stroke-width=".782"/><path clip-path="url(#b)" d="m199.93 323.84 8.9 8.9" fill="none" stroke="#000" stroke-miterlimit="10" stroke-width=".782"/><path clip-path="url(#b)" d="m208.86 323.84-8.92 8.93" fill="none" stroke="#000" stroke-miterlimit="10" stroke-width=".782"/><ellipse clip-path="url(#b)" cx="204.41" cy="328.28" fill="none" rx="2.54" ry="2.54" stroke="#000" stroke-miterlimit="10" stroke-width=".782" transform="matrix(.3827 -.9239 .9239 .3827 -177.1058 391.5021)"/><path clip-path="url(#b)" d="m205.08 328.32c0 .37-.3.67-.67.67s-.67-.3-.67-.67.3-.67.67-.67.67.3.67.67"/><path clip-path="url(#b)" d="m209.07 323.63h9.34v9.34h-9.34z" fill="none" stroke="#000" stroke-miterlimit="10" stroke-width=".782"/><path clip-path="url(#b)" d="m209.27 323.84 8.9 8.91" fill="none" stroke="#000" stroke-miterlimit="10" stroke-width=".782"/><path clip-path="url(#b)" d="m218.19 323.84-8.91 8.94" fill="none" stroke="#000" stroke-miterlimit="10" stroke-width=".782"/><path clip-path="url(#b)" d="m216.29 328.29c0 1.4-1.14 2.54-2.54 2.54s-2.54-1.14-2.54-2.54 1.14-2.54 2.54-2.54 2.54 1.13 2.54 2.54z" fill="none" stroke="#000" stroke-miterlimit="10" stroke-width=".782"/><path clip-path="url(#b)" d="m214.42 328.33c0 .37-.3.67-.67.67s-.67-.3-.67-.67.3-.67.67-.67.67.3.67.67"/><path clip-path="url(#b)" d="m143.53 323.62h9.34v9.34h-9.34z" fill="none" stroke="#000" stroke-miterlimit="10" stroke-width=".782"/><path clip-path="url(#b)" d="m143.74 323.83 8.89 8.91" fill="none" stroke="#000" stroke-miterlimit="10" stroke-width=".782"/><path clip-path="url(#b)" d="m152.66 323.83-8.92 8.94" fill="none" stroke="#000" stroke-miterlimit="10" stroke-width=".782"/><path clip-path="url(#b)" d="m150.75 328.28c0 1.4-1.14 2.54-2.54 2.54s-2.54-1.14-2.54-2.54 1.14-2.54 2.54-2.54 2.54 1.13 2.54 2.54z" fill="none" stroke="#000" stroke-miterlimit="10" stroke-width=".782"/><path clip-path="url(#b)" d="m148.89 328.32c0 .37-.3.67-.67.67s-.67-.3-.67-.67.3-.67.67-.67.67.3.67.67"/><path clip-path="url(#b)" d="m152.87 323.63h9.34v9.34h-9.34z" fill="none" stroke="#000" stroke-miterlimit="10" stroke-width=".782"/><path clip-path="url(#b)" d="m153.07 323.84 8.9 8.91" fill="none" stroke="#000" stroke-miterlimit="10" stroke-width=".782"/><path clip-path="url(#b)" d="m161.99 323.84-8.91 8.94" fill="none" stroke="#000" stroke-miterlimit="10" stroke-width=".782"/><path clip-path="url(#b)" d="m160.09 328.28c0 1.4-1.14 2.54-2.54 2.54s-2.54-1.14-2.54-2.54 1.14-2.54 2.54-2.54 2.54 1.14 2.54 2.54z" fill="none" stroke="#000" stroke-miterlimit="10" stroke-width=".782"/><path clip-path="url(#b)" d="m158.22 328.32c0 .37-.3.67-.67.67s-.67-.3-.67-.67.3-.67.67-.67.67.3.67.67"/><path clip-path="url(#b)" d="m162.21 323.63h9.34v9.34h-9.34z" fill="none" stroke="#000" stroke-miterlimit="10" stroke-width=".782"/><path clip-path="url(#b)" d="m162.41 323.84 8.9 8.9" fill="none" stroke="#000" stroke-miterlimit="10" stroke-width=".782"/><path clip-path="url(#b)" d="m171.33 323.84-8.91 8.93" fill="none" stroke="#000" stroke-miterlimit="10" stroke-width=".782"/><path clip-path="url(#b)" d="m169.43 328.28c0 1.4-1.14 2.54-2.54 2.54s-2.54-1.14-2.54-2.54 1.14-2.54 2.54-2.54 2.54 1.14 2.54 2.54z" fill="none" stroke="#000" stroke-miterlimit="10" stroke-width=".782"/><path clip-path="url(#b)" d="m167.56 328.32c0 .37-.3.67-.67.67s-.67-.3-.67-.67.3-.67.67-.67.67.3.67.67"/><path clip-path="url(#b)" d="m171.55 323.63h9.34v9.34h-9.34z" fill="none" stroke="#000" stroke-miterlimit="10" stroke-width=".782"/><path clip-path="url(#b)" d="m171.75 323.84 8.9 8.91" fill="none" stroke="#000" stroke-miterlimit="10" stroke-width=".782"/><path clip-path="url(#b)" d="m180.67 323.84-8.91 8.94" fill="none" stroke="#000" stroke-miterlimit="10" stroke-width=".782"/><path clip-path="url(#b)" d="m178.77 328.29c0 1.4-1.14 2.54-2.54 2.54s-2.54-1.14-2.54-2.54 1.14-2.54 2.54-2.54 2.54 1.13 2.54 2.54z" fill="none" stroke="#000" stroke-miterlimit="10" stroke-width=".782"/><path clip-path="url(#b)" d="m176.9 328.33c0 .37-.3.67-.67.67s-.67-.3-.67-.67.3-.67.67-.67.67.3.67.67"/><path clip-path="url(#b)" d="m423.48 323.87h9.34v9.34h-9.34z" fill="none" stroke="#000" stroke-miterlimit="10" stroke-width=".782"/><path clip-path="url(#b)" d="m423.68 324.07 8.9 8.91" fill="none" stroke="#000" stroke-miterlimit="10" stroke-width=".782"/><path clip-path="url(#b)" d="m432.6 324.07-8.91 8.94" fill="none" stroke="#000" stroke-miterlimit="10" stroke-width=".782"/><path clip-path="url(#b)" d="m430.7 328.52c0 1.4-1.14 2.54-2.54 2.54s-2.54-1.14-2.54-2.54 1.14-2.54 2.54-2.54 2.54 1.13 2.54 2.54z" fill="none" stroke="#000" stroke-miterlimit="10" stroke-width=".782"/><path clip-path="url(#b)" d="m428.83 328.56c0 .37-.3.67-.67.67s-.67-.3-.67-.67.3-.67.67-.67.67.3.67.67"/><path clip-path="url(#b)" d="m432.81 323.87h9.34v9.34h-9.34z" fill="none" stroke="#000" stroke-miterlimit="10" stroke-width=".782"/><path clip-path="url(#b)" d="m433.02 324.08 8.89 8.91" fill="none" stroke="#000" stroke-miterlimit="10" stroke-width=".782"/><path clip-path="url(#b)" d="m441.94 324.08-8.92 8.94" fill="none" stroke="#000" stroke-miterlimit="10" stroke-width=".782"/><path clip-path="url(#b)" d="m440.03 328.52c0 1.4-1.14 2.54-2.54 2.54s-2.54-1.14-2.54-2.54 1.14-2.54 2.54-2.54 2.54 1.14 2.54 2.54z" fill="none" stroke="#000" stroke-miterlimit="10" stroke-width=".782"/><path clip-path="url(#b)" d="m438.16 328.57c0 .37-.3.67-.67.67s-.67-.3-.67-.67.3-.67.67-.67.67.3.67.67"/><path clip-path="url(#b)" d="m442.15 323.87h9.34v9.34h-9.34z" fill="none" stroke="#000" stroke-miterlimit="10" stroke-width=".782"/><path clip-path="url(#b)" d="m442.36 324.08 8.89 8.91" fill="none" stroke="#000" stroke-miterlimit="10" stroke-width=".782"/><path clip-path="url(#b)" d="m451.28 324.08-8.92 8.94" fill="none" stroke="#000" stroke-miterlimit="10" stroke-width=".782"/><ellipse clip-path="url(#b)" cx="446.83" cy="328.52" fill="none" rx="2.54" ry="2.54" stroke="#000" stroke-miterlimit="10" stroke-width=".782" transform="matrix(.2298 -.9732 .9732 .2298 24.4363 687.921)"/><path clip-path="url(#b)" d="m447.5 328.56c0 .37-.3.67-.67.67s-.67-.3-.67-.67.3-.67.67-.67.67.3.67.67"/><path clip-path="url(#b)" d="m451.49 323.88h9.34v9.34h-9.34z" fill="none" stroke="#000" stroke-miterlimit="10" stroke-width=".782"/><path clip-path="url(#b)" d="m451.69 324.08 8.9 8.91" fill="none" stroke="#000" stroke-miterlimit="10" stroke-width=".782"/><path clip-path="url(#b)" d="m460.61 324.08-8.91 8.94" fill="none" stroke="#000" stroke-miterlimit="10" stroke-width=".782"/><path clip-path="url(#b)" d="m458.71 328.53c0 1.4-1.14 2.54-2.54 2.54s-2.54-1.14-2.54-2.54 1.14-2.54 2.54-2.54 2.54 1.13 2.54 2.54z" fill="none" stroke="#000" stroke-miterlimit="10" stroke-width=".782"/><path clip-path="url(#b)" d="m456.84 328.57c0 .37-.3.67-.67.67s-.67-.3-.67-.67.3-.67.67-.67.67.3.67.67"/><path clip-path="url(#b)" d="m451.62 323.87h9.34v9.34h-9.34z" fill="none" stroke="#000" stroke-miterlimit="10" stroke-width=".782"/><path clip-path="url(#b)" d="m451.82 324.07 8.9 8.91" fill="none" stroke="#000" stroke-miterlimit="10" stroke-width=".782"/><path clip-path="url(#b)" d="m460.74 324.07-8.91 8.94" fill="none" stroke="#000" stroke-miterlimit="10" stroke-width=".782"/><path clip-path="url(#b)" d="m458.84 328.52c0 1.4-1.14 2.54-2.54 2.54s-2.54-1.14-2.54-2.54 1.14-2.54 2.54-2.54 2.54 1.13 2.54 2.54z" fill="none" stroke="#000" stroke-miterlimit="10" stroke-width=".782"/><path clip-path="url(#b)" d="m456.97 328.56c0 .37-.3.67-.67.67s-.67-.3-.67-.67.3-.67.67-.67.67.3.67.67"/><path clip-path="url(#b)" d="m460.95 323.87h9.34v9.34h-9.34z" fill="none" stroke="#000" stroke-miterlimit="10" stroke-width=".782"/><path clip-path="url(#b)" d="m461.16 324.08 8.9 8.91" fill="none" stroke="#000" stroke-miterlimit="10" stroke-width=".782"/><path clip-path="url(#b)" d="m470.08 324.08-8.91 8.94" fill="none" stroke="#000" stroke-miterlimit="10" stroke-width=".782"/><path clip-path="url(#b)" d="m468.17 328.52c0 1.4-1.14 2.54-2.54 2.54s-2.54-1.14-2.54-2.54 1.14-2.54 2.54-2.54c1.41 0 2.54 1.14 2.54 2.54z" fill="none" stroke="#000" stroke-miterlimit="10" stroke-width=".782"/><path clip-path="url(#b)" d="m466.31 328.57c0 .37-.3.67-.67.67s-.67-.3-.67-.67.3-.67.67-.67.67.3.67.67"/><path clip-path="url(#b)" d="m470.29 323.87h9.34v9.34h-9.34z" fill="none" stroke="#000" stroke-miterlimit="10" stroke-width=".782"/><path clip-path="url(#b)" d="m470.5 324.08 8.9 8.91" fill="none" stroke="#000" stroke-miterlimit="10" stroke-width=".782"/><path clip-path="url(#b)" d="m479.42 324.08-8.91 8.94" fill="none" stroke="#000" stroke-miterlimit="10" stroke-width=".782"/><ellipse clip-path="url(#b)" cx="474.97" cy="328.52" fill="none" rx="2.54" ry="2.54" stroke="#000" stroke-miterlimit="10" stroke-width=".782" transform="matrix(.2298 -.9732 .9732 .2298 46.1124 715.3098)"/><path clip-path="url(#b)" d="m475.65 328.56c0 .37-.3.67-.67.67s-.67-.3-.67-.67.3-.67.67-.67.67.3.67.67"/><path clip-path="url(#b)" d="m479.63 323.88h9.34v9.34h-9.34z" fill="none" stroke="#000" stroke-miterlimit="10" stroke-width=".782"/><path clip-path="url(#b)" d="m479.83 324.08 8.9 8.91" fill="none" stroke="#000" stroke-miterlimit="10" stroke-width=".782"/><path clip-path="url(#b)" d="m488.75 324.08-8.91 8.94" fill="none" stroke="#000" stroke-miterlimit="10" stroke-width=".782"/><path clip-path="url(#b)" d="m486.85 328.53c0 1.4-1.14 2.54-2.54 2.54s-2.54-1.14-2.54-2.54 1.14-2.54 2.54-2.54 2.54 1.13 2.54 2.54z" fill="none" stroke="#000" stroke-miterlimit="10" stroke-width=".782"/><path clip-path="url(#b)" d="m484.98 328.57c0 .37-.3.67-.67.67s-.67-.3-.67-.67.3-.67.67-.67.67.3.67.67"/><path clip-path="url(#b)" d="m489.14 323.87h9.34v9.34h-9.34z" fill="none" stroke="#000" stroke-miterlimit="10" stroke-width=".782"/><path clip-path="url(#b)" d="m489.34 324.07 8.9 8.91" fill="none" stroke="#000" stroke-miterlimit="10" stroke-width=".782"/><path clip-path="url(#b)" d="m498.26 324.07-8.91 8.94" fill="none" stroke="#000" stroke-miterlimit="10" stroke-width=".782"/><path clip-path="url(#b)" d="m496.36 328.52c0 1.4-1.14 2.54-2.54 2.54s-2.54-1.14-2.54-2.54 1.14-2.54 2.54-2.54 2.54 1.13 2.54 2.54z" fill="none" stroke="#000" stroke-miterlimit="10" stroke-width=".782"/><path clip-path="url(#b)" d="m494.49 328.56c0 .37-.3.67-.67.67s-.67-.3-.67-.67.3-.67.67-.67.67.3.67.67"/><path clip-path="url(#b)" d="m498.48 323.87h9.34v9.34h-9.34z" fill="none" stroke="#000" stroke-miterlimit="10" stroke-width=".782"/><path clip-path="url(#b)" d="m498.68 324.08 8.9 8.91" fill="none" stroke="#000" stroke-miterlimit="10" stroke-width=".782"/><path clip-path="url(#b)" d="m507.6 324.08-8.91 8.94" fill="none" stroke="#000" stroke-miterlimit="10" stroke-width=".782"/><path clip-path="url(#b)" d="m505.7 328.52c0 1.4-1.14 2.54-2.54 2.54s-2.54-1.14-2.54-2.54 1.14-2.54 2.54-2.54 2.54 1.14 2.54 2.54z" fill="none" stroke="#000" stroke-miterlimit="10" stroke-width=".782"/><path clip-path="url(#b)" d="m503.83 328.57c0 .37-.3.67-.67.67s-.67-.3-.67-.67.3-.67.67-.67.67.3.67.67"/><path clip-path="url(#b)" d="m507.82 323.87h9.34v9.34h-9.34z" fill="none" stroke="#000" stroke-miterlimit="10" stroke-width=".782"/><path clip-path="url(#b)" d="m508.02 324.08 8.9 8.91" fill="none" stroke="#000" stroke-miterlimit="10" stroke-width=".782"/><path clip-path="url(#b)" d="m516.94 324.08-8.91 8.94" fill="none" stroke="#000" stroke-miterlimit="10" stroke-width=".782"/><path clip-path="url(#b)" d="m515.04 328.52c0 1.4-1.14 2.54-2.54 2.54s-2.54-1.14-2.54-2.54 1.14-2.54 2.54-2.54 2.54 1.14 2.54 2.54z" fill="none" stroke="#000" stroke-miterlimit="10" stroke-width=".782"/><path clip-path="url(#b)" d="m513.17 328.56c0 .37-.3.67-.67.67s-.67-.3-.67-.67.3-.67.67-.67.67.3.67.67"/><path clip-path="url(#b)" d="m517.15 323.88h9.34v9.34h-9.34z" fill="none" stroke="#000" stroke-miterlimit="10" stroke-width=".782"/><path clip-path="url(#b)" d="m517.36 324.08 8.89 8.91" fill="none" stroke="#000" stroke-miterlimit="10" stroke-width=".782"/><path clip-path="url(#b)" d="m526.28 324.08-8.92 8.94" fill="none" stroke="#000" stroke-miterlimit="10" stroke-width=".782"/><path clip-path="url(#b)" d="m524.37 328.53c0 1.4-1.14 2.54-2.54 2.54s-2.54-1.14-2.54-2.54 1.14-2.54 2.54-2.54 2.54 1.13 2.54 2.54z" fill="none" stroke="#000" stroke-miterlimit="10" stroke-width=".782"/><path clip-path="url(#b)" d="m522.5 328.57c0 .37-.3.67-.67.67s-.67-.3-.67-.67.3-.67.67-.67.67.3.67.67"/><path clip-path="url(#b)" d="m536 333.2h-9.34v-9.33h9.34" fill="none" stroke="#000" stroke-miterlimit="10" stroke-width=".782"/><path clip-path="url(#b)" d="m526.87 324.07 8.89 8.91" fill="none" stroke="#000" stroke-miterlimit="10" stroke-width=".782"/><path clip-path="url(#b)" d="m535.79 324.07-8.91 8.94" fill="none" stroke="#000" stroke-miterlimit="10" stroke-width=".782"/><path clip-path="url(#b)" d="m533.88 328.52c0 1.4-1.14 2.54-2.54 2.54s-2.54-1.14-2.54-2.54 1.14-2.54 2.54-2.54 2.54 1.13 2.54 2.54z" fill="none" stroke="#000" stroke-miterlimit="10" stroke-width=".782"/><path clip-path="url(#b)" d="m532.02 328.56c0 .37-.3.67-.67.67s-.67-.3-.67-.67.3-.67.67-.67c.36 0 .67.3.67.67"/><path clip-path="url(#b)" d="m321.01 323.93h9.52v9.34h-9.52z" fill="none" stroke="#000" stroke-miterlimit="10" stroke-width=".789"/><path clip-path="url(#b)" d="m321.22 324.13 9.07 8.91" fill="none" stroke="#000" stroke-miterlimit="10" stroke-width=".789"/><path clip-path="url(#b)" d="m330.31 324.13-9.09 8.94" fill="none" stroke="#000" stroke-miterlimit="10" stroke-width=".789"/><path clip-path="url(#b)" d="m328.37 328.58c0 1.4-1.16 2.54-2.59 2.54s-2.59-1.14-2.59-2.54 1.16-2.54 2.59-2.54c1.43-.01 2.59 1.13 2.59 2.54z" fill="none" stroke="#000" stroke-miterlimit="10" stroke-width=".789"/><path clip-path="url(#b)" d="m326.47 328.62c0 .37-.31.67-.69.67s-.68-.3-.68-.67.31-.67.68-.67c.38 0 .69.3.69.67"/><path clip-path="url(#b)" d="m330.53 323.93h9.52v9.34h-9.52z" fill="none" stroke="#000" stroke-miterlimit="10" stroke-width=".789"/><path clip-path="url(#b)" d="m330.74 324.14 9.07 8.91" fill="none" stroke="#000" stroke-miterlimit="10" stroke-width=".789"/><path clip-path="url(#b)" d="m339.83 324.14-9.09 8.94" fill="none" stroke="#000" stroke-miterlimit="10" stroke-width=".789"/><path clip-path="url(#b)" d="m337.89 328.58c0 1.4-1.16 2.54-2.59 2.54s-2.59-1.14-2.59-2.54 1.16-2.54 2.59-2.54 2.59 1.14 2.59 2.54z" fill="none" stroke="#000" stroke-miterlimit="10" stroke-width=".789"/><path clip-path="url(#b)" d="m335.99 328.63c0 .37-.31.67-.69.67s-.69-.3-.69-.67.31-.67.69-.67c.38-.01.69.29.69.67"/><path clip-path="url(#b)" d="m340.05 323.93h9.52v9.34h-9.52z" fill="none" stroke="#000" stroke-miterlimit="10" stroke-width=".789"/><path clip-path="url(#b)" d="m340.26 324.14 9.07 8.91" fill="none" stroke="#000" stroke-miterlimit="10" stroke-width=".789"/><path clip-path="url(#b)" d="m349.36 324.14-9.09 8.94" fill="none" stroke="#000" stroke-miterlimit="10" stroke-width=".789"/><path clip-path="url(#b)" d="m347.42 328.58c0 1.4-1.16 2.54-2.59 2.54s-2.59-1.14-2.59-2.54 1.16-2.54 2.59-2.54c1.42 0 2.59 1.14 2.59 2.54z" fill="none" stroke="#000" stroke-miterlimit="10" stroke-width=".789"/><path clip-path="url(#b)" d="m345.51 328.62c0 .37-.31.67-.69.67s-.68-.3-.68-.67.31-.67.68-.67c.38 0 .69.3.69.67"/><path clip-path="url(#b)" d="m349.57 323.94h9.52v9.34h-9.52z" fill="none" stroke="#000" stroke-miterlimit="10" stroke-width=".789"/><path clip-path="url(#b)" d="m349.78 324.14 9.07 8.91" fill="none" stroke="#000" stroke-miterlimit="10" stroke-width=".789"/><path clip-path="url(#b)" d="m358.88 324.14-9.09 8.94" fill="none" stroke="#000" stroke-miterlimit="10" stroke-width=".789"/><path clip-path="url(#b)" d="m356.94 328.59c0 1.4-1.16 2.54-2.59 2.54s-2.59-1.14-2.59-2.54 1.16-2.54 2.59-2.54c1.42 0 2.59 1.13 2.59 2.54z" fill="none" stroke="#000" stroke-miterlimit="10" stroke-width=".789"/><path clip-path="url(#b)" d="m355.03 328.63c0 .37-.31.67-.69.67s-.68-.3-.68-.67.31-.67.68-.67c.38 0 .69.3.69.67"/><path clip-path="url(#b)" d="m372.31 323.98h9.34v9.34h-9.34z" fill="none" stroke="#000" stroke-miterlimit="10" stroke-width=".782"/><path clip-path="url(#b)" d="m372.51 324.19 8.9 8.91" fill="none" stroke="#000" stroke-miterlimit="10" stroke-width=".782"/><path clip-path="url(#b)" d="m381.43 324.19-8.91 8.94" fill="none" stroke="#000" stroke-miterlimit="10" stroke-width=".782"/><path clip-path="url(#b)" d="m379.53 328.63c0 1.4-1.14 2.54-2.54 2.54s-2.54-1.14-2.54-2.54 1.14-2.54 2.54-2.54 2.54 1.14 2.54 2.54z" fill="none" stroke="#000" stroke-miterlimit="10" stroke-width=".782"/><path clip-path="url(#b)" d="m377.66 328.68c0 .37-.3.67-.67.67s-.67-.3-.67-.67.3-.67.67-.67.67.29.67.67"/><path clip-path="url(#b)" d="m381.65 323.99h9.34v9.34h-9.34z" fill="none" stroke="#000" stroke-miterlimit="10" stroke-width=".782"/><path clip-path="url(#b)" d="m381.85 324.2 8.9 8.9" fill="none" stroke="#000" stroke-miterlimit="10" stroke-width=".782"/><path clip-path="url(#b)" d="m390.77 324.2-8.91 8.93" fill="none" stroke="#000" stroke-miterlimit="10" stroke-width=".782"/><ellipse clip-path="url(#b)" cx="386.32" cy="328.64" fill="none" rx="2.54" ry="2.54" stroke="#000" stroke-miterlimit="10" stroke-width=".782" transform="matrix(.2298 -.9732 .9732 .2298 -22.2822 629.1238)"/><path clip-path="url(#b)" d="m387 328.68c0 .37-.3.67-.67.67s-.67-.3-.67-.67.3-.67.67-.67.67.3.67.67"/><path clip-path="url(#b)" d="m390.99 323.99h9.34v9.34h-9.34z" fill="none" stroke="#000" stroke-miterlimit="10" stroke-width=".782"/><path clip-path="url(#b)" d="m391.19 324.19 8.9 8.91" fill="none" stroke="#000" stroke-miterlimit="10" stroke-width=".782"/><path clip-path="url(#b)" d="m400.11 324.19-8.91 8.94" fill="none" stroke="#000" stroke-miterlimit="10" stroke-width=".782"/><path clip-path="url(#b)" d="m398.21 328.64c0 1.4-1.14 2.54-2.54 2.54s-2.54-1.14-2.54-2.54 1.14-2.54 2.54-2.54 2.54 1.13 2.54 2.54z" fill="none" stroke="#000" stroke-miterlimit="10" stroke-width=".782"/><path clip-path="url(#b)" d="m396.34 328.68c0 .37-.3.67-.67.67s-.67-.3-.67-.67.3-.67.67-.67.67.3.67.67"/><path clip-path="url(#b)" d="m400.32 323.99h9.34v9.34h-9.34z" fill="none" stroke="#000" stroke-miterlimit="10" stroke-width=".782"/><path clip-path="url(#b)" d="m400.53 324.2 8.89 8.91" fill="none" stroke="#000" stroke-miterlimit="10" stroke-width=".782"/><path clip-path="url(#b)" d="m409.45 324.2-8.92 8.94" fill="none" stroke="#000" stroke-miterlimit="10" stroke-width=".782"/><path clip-path="url(#b)" d="m407.54 328.64c0 1.4-1.14 2.54-2.54 2.54s-2.54-1.14-2.54-2.54 1.14-2.54 2.54-2.54 2.54 1.14 2.54 2.54z" fill="none" stroke="#000" stroke-miterlimit="10" stroke-width=".782"/><path clip-path="url(#b)" d="m405.67 328.69c0 .37-.3.67-.67.67s-.67-.3-.67-.67.3-.67.67-.67.67.3.67.67"/><path clip-path="url(#b)" d="m320.65 257.08h9.34v9.34h-9.34z" fill="none" stroke="#000" stroke-miterlimit="10" stroke-width=".782"/><path clip-path="url(#b)" d="m320.86 257.29 8.9 8.91" fill="none" stroke="#000" stroke-miterlimit="10" stroke-width=".782"/><path clip-path="url(#b)" d="m329.78 257.29-8.91 8.94" fill="none" stroke="#000" stroke-miterlimit="10" stroke-width=".782"/><ellipse clip-path="url(#b)" cx="325.33" cy="261.73" fill="none" rx="2.54" ry="2.54" stroke="#000" stroke-miterlimit="10" stroke-width=".782" transform="matrix(.2298 -.9732 .9732 .2298 -4.1468 518.2296)"/><path clip-path="url(#b)" d="m326.01 261.78c0 .37-.3.67-.67.67s-.67-.3-.67-.67.3-.67.67-.67.67.3.67.67"/><path clip-path="url(#b)" d="m329.99 257.09h9.34v9.34h-9.34z" fill="none" stroke="#000" stroke-miterlimit="10" stroke-width=".782"/><path clip-path="url(#b)" d="m330.19 257.3 8.9 8.91" fill="none" stroke="#000" stroke-miterlimit="10" stroke-width=".782"/><path clip-path="url(#b)" d="m339.11 257.3-8.91 8.94" fill="none" stroke="#000" stroke-miterlimit="10" stroke-width=".782"/><ellipse clip-path="url(#b)" cx="334.67" cy="261.74" fill="none" rx="2.54" ry="2.54" stroke="#000" stroke-miterlimit="10" stroke-width=".782" transform="matrix(.2298 -.9732 .9732 .2298 3.039 527.3207)"/><path clip-path="url(#b)" d="m335.34 261.78c0 .37-.3.67-.67.67s-.67-.3-.67-.67.3-.67.67-.67.67.3.67.67"/><path clip-path="url(#b)" d="m339.33 257.09h9.34v9.34h-9.34z" fill="none" stroke="#000" stroke-miterlimit="10" stroke-width=".782"/><path clip-path="url(#b)" d="m339.53 257.3 8.9 8.9" fill="none" stroke="#000" stroke-miterlimit="10" stroke-width=".782"/><path clip-path="url(#b)" d="m348.45 257.3-8.91 8.93" fill="none" stroke="#000" stroke-miterlimit="10" stroke-width=".782"/><ellipse clip-path="url(#b)" cx="344.01" cy="261.74" fill="none" rx="2.54" ry="2.54" stroke="#000" stroke-miterlimit="10" stroke-width=".782" transform="matrix(.2298 -.9732 .9732 .2298 10.234 536.4099)"/><path clip-path="url(#b)" d="m344.68 261.78c0 .37-.3.67-.67.67s-.67-.3-.67-.67.3-.67.67-.67.67.3.67.67"/><path clip-path="url(#b)" d="m348.67 257.09h9.34v9.34h-9.34z" fill="none" stroke="#000" stroke-miterlimit="10" stroke-width=".782"/><path clip-path="url(#b)" d="m348.87 257.3 8.9 8.91" fill="none" stroke="#000" stroke-miterlimit="10" stroke-width=".782"/><path clip-path="url(#b)" d="m357.79 257.3-8.91 8.94" fill="none" stroke="#000" stroke-miterlimit="10" stroke-width=".782"/><ellipse clip-path="url(#b)" cx="353.34" cy="261.75" fill="none" rx="2.54" ry="2.54" stroke="#000" stroke-miterlimit="10" stroke-width=".782" transform="matrix(.2298 -.9732 .9732 .2298 17.4192 545.5006)"/><path clip-path="url(#b)" d="m354.02 261.79c0 .37-.3.67-.67.67s-.67-.3-.67-.67.3-.67.67-.67.67.3.67.67"/><path clip-path="url(#b)" d="m372.15 256.91h9.34v9.34h-9.34z" fill="none" stroke="#000" stroke-miterlimit="10" stroke-width=".782"/><path clip-path="url(#b)" d="m372.36 257.12 8.89 8.91" fill="none" stroke="#000" stroke-miterlimit="10" stroke-width=".782"/><path clip-path="url(#b)" d="m381.28 257.12-8.92 8.94" fill="none" stroke="#000" stroke-miterlimit="10" stroke-width=".782"/><path clip-path="url(#b)" d="m379.37 261.56c0 1.4-1.14 2.54-2.54 2.54s-2.54-1.14-2.54-2.54 1.14-2.54 2.54-2.54 2.54 1.14 2.54 2.54z" fill="none" stroke="#000" stroke-miterlimit="10" stroke-width=".782"/><path clip-path="url(#b)" d="m377.5 261.6c0 .37-.3.67-.67.67s-.67-.3-.67-.67.3-.67.67-.67.67.3.67.67"/><path clip-path="url(#b)" d="m381.49 256.92h9.34v9.34h-9.34z" fill="none" stroke="#000" stroke-miterlimit="10" stroke-width=".782"/><path clip-path="url(#b)" d="m381.69 257.12 8.9 8.91" fill="none" stroke="#000" stroke-miterlimit="10" stroke-width=".782"/><path clip-path="url(#b)" d="m390.61 257.12-8.91 8.94" fill="none" stroke="#000" stroke-miterlimit="10" stroke-width=".782"/><path clip-path="url(#b)" d="m388.71 261.57c0 1.4-1.14 2.54-2.54 2.54s-2.54-1.14-2.54-2.54 1.14-2.54 2.54-2.54 2.54 1.13 2.54 2.54z" fill="none" stroke="#000" stroke-miterlimit="10" stroke-width=".782"/><path clip-path="url(#b)" d="m386.84 261.61c0 .37-.3.67-.67.67s-.67-.3-.67-.67.3-.67.67-.67.67.3.67.67"/><path clip-path="url(#b)" d="m390.83 256.92h9.34v9.34h-9.34z" fill="none" stroke="#000" stroke-miterlimit="10" stroke-width=".782"/><path clip-path="url(#b)" d="m391.03 257.12 8.9 8.91" fill="none" stroke="#000" stroke-miterlimit="10" stroke-width=".782"/><path clip-path="url(#b)" d="m399.95 257.12-8.91 8.94" fill="none" stroke="#000" stroke-miterlimit="10" stroke-width=".782"/><path clip-path="url(#b)" d="m398.05 261.57c0 1.4-1.14 2.54-2.54 2.54s-2.54-1.14-2.54-2.54 1.14-2.54 2.54-2.54c1.4-.01 2.54 1.13 2.54 2.54z" fill="none" stroke="#000" stroke-miterlimit="10" stroke-width=".782"/><path clip-path="url(#b)" d="m396.18 261.61c0 .37-.3.67-.67.67s-.67-.3-.67-.67.3-.67.67-.67.67.3.67.67"/><path clip-path="url(#b)" d="m400.17 256.92h9.34v9.34h-9.34z" fill="none" stroke="#000" stroke-miterlimit="10" stroke-width=".782"/><path clip-path="url(#b)" d="m400.37 257.13 8.9 8.91" fill="none" stroke="#000" stroke-miterlimit="10" stroke-width=".782"/><path clip-path="url(#b)" d="m409.29 257.13-8.91 8.94" fill="none" stroke="#000" stroke-miterlimit="10" stroke-width=".782"/><path clip-path="url(#b)" d="m407.39 261.57c0 1.4-1.14 2.54-2.54 2.54s-2.54-1.14-2.54-2.54 1.14-2.54 2.54-2.54 2.54 1.14 2.54 2.54z" fill="none" stroke="#000" stroke-miterlimit="10" stroke-width=".782"/><path clip-path="url(#b)" d="m405.52 261.61c0 .37-.3.67-.67.67s-.67-.3-.67-.67.3-.67.67-.67.67.3.67.67"/><path clip-path="url(#b)" d="m374.62 340.8c-.09-.47.31-1.45-.35-1.46-.03 0-.61 0-1.45 0v-13.79c0-1-.57-1.81-1.27-1.81h-11.19c-.71 0-1.28.81-1.28 1.81v13.79c-.58 0-.96 0-.98 0-.66.01-.26.99-.35 1.46-.17.86-.13.88-.83 1.39v1.94h8.99.58 8.98v-1.94c-.72-.51-.69-.53-.85-1.39" fill="#fff"/><path clip-path="url(#b)" d="m374.62 340.8c-.09-.47.31-1.45-.35-1.46-.03 0-.61 0-1.45 0v-13.79c0-1-.57-1.81-1.27-1.81h-11.19c-.71 0-1.28.81-1.28 1.81v13.79c-.58 0-.96 0-.98 0-.66.01-.26.99-.35 1.46-.17.86-.13.88-.83 1.39v1.94h8.99.58 8.98v-1.94c-.72-.51-.69-.53-.85-1.39z" fill="none" stroke="#000" stroke-width="1.021"/><path clip-path="url(#b)" d="m359.07 338.51h13.75" fill="none" stroke="#000" stroke-width="1.021"/><path clip-path="url(#b)" d="m357.02 341.79h18.45" fill="#fff"/><path clip-path="url(#b)" d="m357.02 341.79h18.45" fill="none" stroke="#000" stroke-width="1.021"/></svg>