<svg fill="none" height="20" viewBox="0 0 20 20" width="20" xmlns="http://www.w3.org/2000/svg" xmlns:xlink="http://www.w3.org/1999/xlink"><clipPath id="a"><path d="m1 1h18v18h-18z"/></clipPath><g clip-path="url(#a)" stroke="#ffefef" stroke-linecap="round" stroke-linejoin="round"><path d="m6.34375 11.4062-1.6875-9.56245h11.24995l-1.6874 9.56245"/><path d="m9.15625 4.65625h2.24995"/><path d="m9.15625 7.46875h2.24995"/><path d="m9.15625 10.2812h2.24995"/><path d="m10.2812 16.4688c.3107 0 .5626-.2519.5626-.5626 0-.3106-.2519-.5624-.5626-.5624-.31061 0-.56245.2518-.56245.5624 0 .3107.25184.5626.56245.5626z"/><path d="m15.9062 18.7188-.8538-4.2683c-.0765-.3825-.2831-.7267-.5847-.9741-.3016-.2473-.6796-.3825-1.0696-.3826h-6.23366c-.39007.0001-.76805.1353-1.06966.3826-.3016.2474-.5082.5916-.58465.9741l-.85388 4.2683z"/></g></svg>